<?xml version="1.0" encoding="utf-8"?>
<!-- Generator: Adobe Illustrator 19.0.0, SVG Export Plug-In . SVG Version: 6.00 Build 0)  -->
<svg version="1.0" id="Layer_1" xmlns="http://www.w3.org/2000/svg" xmlns:xlink="http://www.w3.org/1999/xlink" x="0px" y="0px"
	 width="792px" height="828.594px" viewBox="722.138 -102.69 792 828.594" enable-background="new 722.138 -102.69 792 828.594"
	 xml:space="preserve">
<path fill="#050303" d="M1430.97-90.749c2.1,3.591,4.675,8.265,6.368,12.533c9.281,23.102,29.944,50.743,43.223,83.939
	c5.013,12.601,7.52,43.223-15.785,37.397c-9.959-2.507-25.744-16.598-25.744-16.598c-6.775-5.759-17.072-9.959-10.84,3.726
	c27.641,60.227,27.98,111.512,33.67,175.804c1.829,27.912,2.845,29.47-5.826,56.501c-3.049,7.181-6.097,14.43-9.146,21.611
	c29.335,60.702-0.068,65.715,4.133,112.19c0.813,9.146,5.42,25.338,6.233,30.351c4.404,26.489,1.287,43.426-0.813,70.661
	c0,38.887-9.349,92.407,11.246,126.755c2.507,4.133,14.566,13.685,14.566,13.685c6.571,5.149,40.377,36.38,29.877,42.139
	c-4.065,2.236-1.287,3.455-4.946,6.504c-2.507,2.1-10.365,2.1-10.365,2.1c1.897,9.552-34.619,7.181-36.99,1.219
	c-0.677-1.694-29.538,8.13-40.784-11.178c-2.981-5.081-2.371-13.549-2.913-14.227c-1.694-2.1-4.539-3.32-9.146-4.539
	c-4.539-1.219-7.926-3.32-7.452-7.926c0.406-4.539,3.726-18.292,3.726-23.237c0-31.367-10.027-71.948-17.479-102.231
	c-5.962-11.111-16.598-16.395-28.522-17.818c-24.931-2.981-55.621,10.433-62.057,21.137c-20.256,33.67-29.606,24.457-26.625,67.747
	c-1.084,5.555-2.236,11.111-3.32,16.598c5.013,1.829,9.959,3.591,14.972,5.42c18.698,10.569,10.636,17.14,1.626,24.66
	c-14.769,12.398-7.52,12.669-14.498,22.695c0,0,3.32,5.826,6.233,7.452c3.387,1.897,5.42,5.149,6.639,8.875
	c2.303,6.843,2.371,15.65,2.1,21.882c-0.61,12.533-2.507,10.84-12.872,11.653c0,0-0.406,5.013-3.726,5.42
	c-3.32,0.406-7.046,1.219-9.146-0.813c-2.1-2.1-12.465-0.406-12.465-0.406c2.168,5.488-15.446,4.878-19.105,4.946
	c-8.672,0.203-7.046-0.677-11.652-5.759c-2.913-2.1-6.233,0-10.365,0s-8.74,2.507-12.059-2.1
	c-14.498-19.985,2.371-12.804-0.406-37.803c-0.406-3.726-2.913-9.146-2.913-9.146s-6.639-2.981-11.653-2.913
	c-22.086,0.339-25.134-0.474-32.044,3.929c-2.981,1.897-6.707,4.81-13.075,9.146c-13.007,9.756-24.389,10.569-40.919,8.333
	c-12.33-1.694-67.951-0.745-105.889-4.471c-56.027-5.488-28.725-15.446-44.984-64.089c-6.504-18.834-2.913-43.02,3.658-64.902
	c4.742-15.785,11.449-31.503,16.734-47.355c-66.934-51.691-79.197-171.672-210.288-93.017c-12.872,7.723-38.955,20.595-20.798-6.639
	c1.626-2.439,3.455-5.623,5.488-8.739c25.541-38.142,96.879-41.529,136.308-29.199c32.993,10.298,62.802,31.57,84.21,61.244
	c23.305,32.248,35.838,36.245,62.328-1.694c17.614-25.202,32.993-39.632,53.182-61.515c18.698-20.256,43.02-44.239,64.021-61.921
	c21.815-18.36,37.667-31.909,54.062-47.897c20.121-19.579,41.19-42.207,58.873-63.886c8.807-10.772,8.062-19.985,3.862-28.86
	c-2.845-6.097-7.52-11.924-11.382-18.089c-6.165-9.959-10.162-17.14-17.479-26.625c-2.236-1.694-4.404-3.32-6.639-5.013
	c-2.778,0.677-5.555,1.355-8.333,2.1c2.71,24.254-5.284,60.092-30.893,69.915c-9.146,3.523-19.308,1.694-31.841-8.807
	c-13.211-10.975-18.495-24.728-27.438-39.09c-2.1-3.32-7.452-7.926-9.959-16.192c-15.04-50.201,38.413-69.102,72.964-95.795
	c8.265-9.62,22.492-13.549,34.484-9.552c1.897,0.61,7.452,3.726,9.146,3.726c1.694,0,4.336,2.303,6.842-0.406
	c2.507-2.71,4.607-6.842,6.436-8.536c26.828-23.847,35.5-40.513,78.723-45.526c0,0,6.368-1.423,8.13-2.303
	C1324.471-33.909,1403.6-137.021,1430.97-90.749z"/>
</svg>
