<?xml version="1.0" encoding="utf-8"?>
<!-- Generator: Adobe Illustrator 18.1.1, SVG Export Plug-In . SVG Version: 6.00 Build 0)  -->
<svg version="1.1" id="Layer_1" xmlns="http://www.w3.org/2000/svg" xmlns:xlink="http://www.w3.org/1999/xlink" x="0px" y="0px"
	 viewBox="0 0 1500 1500" enable-background="new 0 0 1500 1500" xml:space="preserve">
<path d="M1389,930.7c-12.9-5.9-26.9-11.2-38.5-19.5c-13-9.3-23.5-23.1-33.2-35.3c-22.5-28.1-32.2-57.6-45.1-90.3
	c-8.3-21.1-22.9-36.6-37.4-53.9c-8-9.5-15.7-18.9-26.9-25.1c-7.9-4.4-18.2-4.8-26.5-7.8c0.1-0.7-0.3-1.3-1.2-1.6
	c-1.2-0.3-2.3-0.7-3.5-1c-14.8-9.5-29.2-18.6-47.2-23.4c-26.5-7-55.6-15.9-83.1-17.6c-63.9-4-128.6-1.3-192-10.3
	c-28.1-4-56.4-9-84.4-12.4c-13.8-1.7-27.9-0.1-41.7-0.1c-14.4,0.1-28.3-3.2-42.6-4.3c-31.6-2.5-69.4-10.5-97.2-26.6
	c-12.5-7.3-29.3-18.4-38.6-28.9c-5.7-6.5-9.4-13.1-14.8-18.5c-8.8-15.4-15.7-31.4-24.7-47.1c-3-5.2-6.1-10.3-9.3-15.4
	c-3.7-8.9-7.9-17.6-12.7-25.7c-11-18.8-18.6-39.8-31.1-57.5c-22.4-31.7-47.2-63.3-88.8-72.4c-33.1-7.2-68.1,11.5-97.8,22.8
	c-1.9,0.7-2.7,2.1-2.4,4c-12.8,6.7-23.5,14.8-35,23.3c-29.1,21.4-63.2,28-96,41.4c-9,3.7-16.8,7.1-26.5,8.8
	c-6.2,1-12.6,1.1-18.4,3.3c-9.4,3.5-14,8.2-15.4,17.8c-3.1,20.9,6.3,34.3,26.5,33.9c3.5,12.2,11.1,24.4,22.2,28.5
	c9.5,3.6,19.9,0.9,29.7,2.1c-0.5,0.7-1,1.4-1.4,2.1c-2.8,5,0,9.8,5,11.8c12.2,4.9,31.4,4.2,44.9,4.7c19.1,0.7,64.8-7.7,70.4,19.2
	c2.7,13.3-1.2,22.9,13.7,30.8c8.7,4.7,20.3,6,30.9,5.1c-1.4,9.5-2.7,18.9-2.5,29c0.4,19.8,0.3,39.8,2.9,59.5
	c2.8,21.4,14.9,41.3,23.1,61.1c8.8,21,18.7,41.5,28.8,61.9c8.8,17.8,16.8,33.8,30.9,48.4c15.2,15.7,31.9,29.4,46.5,45.9
	c14.8,16.8,36.5,37,60.4,46.2c-0.2,17.7,4.8,34.8,4,52.6c-0.5,9.6,0.3,18.9-2.6,28c-3.5,10.8-11.4,17.5-20.2,25.1
	c-9.4,8-18.3,14.9-13,28.2c4.6,11.5,14,13.2,25.4,12c15.8-1.7,35.6-3.3,50.5-8.2c7.3-2.4,15.7-8.6,22.5-15.2
	c5.7,1.5,11.5,1.9,18.2,1.3c11.2-1,22.2,1.7,33.4,0.2c15.8-2.2,28.1-14.6,30.2-29.9c1.7-12.2-1.4-26.4-0.5-39.2
	c1-13.9,0.5-28,1.3-42c0.5-9.7,0.3-19.4-0.3-29.2c8.3-0.4,16.7-0.9,25.2-1.3c31-1.4,62.3-3.1,93.4-3.1c59.9,0,119.7-6.7,179.5-8.3
	c33.2-0.9,66.2-0.3,99.3-1.7c29.5-1.3,78.7,5.4,97.7,30.7c12.2,16.3,11,50.7,1,68c-8.8,15.1-34.7,30.9-32.9,50.7
	c0.3,3.6,2.4,6.8,6.2,7.8c8.2,2.2,16.8-0.9,25.2-1.6c10.9-1,22.8-0.6,33.3-4.1c12.6-4.2,23.8-19.6,29.4-31c7.1-14.4,6-35.7,4.2-54.6
	c10.9,15,10.8,40.3,1.1,55.1c-6,9.2-26.1,28.9-20.2,41.6c4.4,9.5,23.9,7,33,7.1c17.8,0.3,31.5-0.6,44-14
	c13.8-14.8,16.5-43.5,17.6-62.1c1.3-20.9-1.2-41.7-4.3-62.4c-3.4-23.1-10-44.2-11.5-67.5c-0.1-0.9-0.1-1.9-0.2-2.9
	c5.6,6.1,11.1,12.3,16.7,18.3c25.2,26.9,51.9,39.3,88.5,46C1390.7,943.5,1396.1,934,1389,930.7z"/>
</svg>
