<?xml version="1.0" encoding="utf-8"?>
<!-- Generator: Adobe Illustrator 18.1.1, SVG Export Plug-In . SVG Version: 6.00 Build 0)  -->
<svg version="1.0" id="Layer_1" xmlns="http://www.w3.org/2000/svg" xmlns:xlink="http://www.w3.org/1999/xlink" x="0px" y="0px"
	 width="877.3px" height="506.3px" viewBox="0 0 877.3 506.3" enable-background="new 0 0 877.3 506.3" xml:space="preserve">
<path fill="#010101" d="M875.1,397.5c-8.6-3.9-17.9-7.5-25.7-13c-8.7-6.2-15.7-15.4-22.1-23.5c-15-18.7-21.5-38.4-30.1-60.2
	c-5.5-14.1-15.3-24.4-24.9-35.9c-5.3-6.3-10.5-12.6-17.9-16.7c-5.3-2.9-12.1-3.2-17.7-5.2c0.1-0.5-0.2-0.9-0.8-1.1
	c-0.8-0.2-1.5-0.5-2.3-0.7c-9.9-6.3-19.5-12.4-31.5-15.6c-17.7-4.7-37.1-10.6-55.4-11.7c-42.6-2.7-85.7-0.9-128-6.9
	c-18.7-2.7-37.6-6-56.3-8.3c-9.2-1.1-18.6-0.1-27.8-0.1c-9.6,0.1-18.9-2.1-28.4-2.9c-21.1-1.7-46.3-7-64.8-17.7
	c-8.3-4.9-19.5-12.3-25.7-19.3c-3.8-4.3-6.3-8.7-9.9-12.3c-5.9-10.3-10.5-20.9-16.5-31.4c-2-3.5-4.1-6.9-6.2-10.3
	c-2.5-5.9-5.3-11.7-8.5-17.1c-7.3-12.5-12.4-26.5-20.7-38.3C239,28.2,222.5,7.1,194.7,1.1c-22.1-4.8-45.4,7.7-65.2,15.2
	c-1.3,0.5-1.8,1.4-1.6,2.7c-8.5,4.5-15.7,9.9-23.3,15.5c-19.4,14.3-42.1,18.7-64,27.6c-6,2.5-11.2,4.7-17.7,5.9
	c-4.1,0.7-8.4,0.7-12.3,2.2C4.4,72.5,1.3,75.6,0.4,82c-2.1,13.9,4.2,22.9,17.7,22.6c2.3,8.1,7.4,16.3,14.8,19
	c6.3,2.4,13.3,0.6,19.8,1.4c-0.3,0.5-0.7,0.9-0.9,1.4c-1.9,3.3,0,6.5,3.3,7.9c8.1,3.3,20.9,2.8,29.9,3.1
	c12.7,0.5,43.2-5.1,46.9,12.8c1.8,8.9-0.8,15.3,9.1,20.5c5.8,3.1,13.5,4,20.6,3.4c-0.9,6.3-1.8,12.6-1.7,19.3
	c0.3,13.2,0.2,26.5,1.9,39.7c1.9,14.3,9.9,27.5,15.4,40.7c5.9,14,12.5,27.7,19.2,41.3c5.9,11.9,11.2,22.5,20.6,32.3
	c10.1,10.5,21.3,19.6,31,30.6c9.9,11.2,24.3,24.7,40.3,30.8c-0.1,11.8,3.2,23.2,2.7,35.1c-0.3,6.4,0.2,12.6-1.7,18.7
	c-2.3,7.2-7.6,11.7-13.5,16.7c-6.3,5.3-12.2,9.9-8.7,18.8c3.1,7.7,9.3,8.8,16.9,8c10.5-1.1,23.7-2.2,33.7-5.5
	c4.9-1.6,10.5-5.7,15-10.1c3.8,1,7.7,1.3,12.1,0.9c7.5-0.7,14.8,1.1,22.3,0.1c10.5-1.5,18.7-9.7,20.1-19.9
	c1.1-8.1-0.9-17.6-0.3-26.1c0.7-9.3,0.3-18.7,0.9-28c0.3-6.5,0.2-12.9-0.2-19.5c5.5-0.3,11.1-0.6,16.8-0.9
	c20.7-0.9,41.5-2.1,62.3-2.1c39.9,0,79.8-4.5,119.7-5.5c22.1-0.6,44.1-0.2,66.2-1.1c19.7-0.9,52.5,3.6,65.1,20.5
	c8.1,10.9,7.3,33.8,0.7,45.3c-5.9,10.1-23.1,20.6-21.9,33.8c0.2,2.4,1.6,4.5,4.1,5.2c5.5,1.5,11.2-0.6,16.8-1.1
	c7.3-0.7,15.2-0.4,22.2-2.7c8.4-2.8,15.9-13.1,19.6-20.7c4.7-9.6,4-23.8,2.8-36.4c7.3,10,7.2,26.9,0.7,36.7
	c-4,6.1-17.4,19.3-13.5,27.7c2.9,6.3,15.9,4.7,22,4.7c11.9,0.2,21-0.4,29.3-9.3c9.2-9.9,11-29,11.7-41.4c0.9-13.9-0.8-27.8-2.9-41.6
	c-2.3-15.4-6.7-29.5-7.7-45c-0.1-0.6-0.1-1.3-0.1-1.9c3.7,4.1,7.4,8.2,11.1,12.2c16.8,17.9,34.6,26.2,59,30.7
	C876.2,406.1,879.8,399.7,875.1,397.5z"/>
</svg>
