<?xml version="1.0" encoding="utf-8"?>
<!-- Generator: Adobe Illustrator 18.1.1, SVG Export Plug-In . SVG Version: 6.00 Build 0)  -->
<svg version="1.0" id="Layer_1" xmlns="http://www.w3.org/2000/svg" xmlns:xlink="http://www.w3.org/1999/xlink" x="0px" y="0px"
	 width="779.4px" height="815.4px" viewBox="0 0 779.4 815.4" enable-background="new 0 0 779.4 815.4" xml:space="preserve">
<path fill="#010101" d="M697.5,11.7c2.1,3.5,4.6,8.1,6.3,12.3c9.1,22.7,29.5,49.9,42.5,82.6c4.9,12.4,7.4,42.5-15.5,36.8
	c-9.8-2.5-25.3-16.3-25.3-16.3c-6.7-5.7-16.8-9.8-10.7,3.7c27.2,59.3,27.5,109.7,33.1,173c1.8,27.5,2.8,29-5.7,55.6
	c-3,7.1-6,14.2-9,21.3c28.9,59.7-0.1,64.7,4.1,110.4c0.8,9,5.3,24.9,6.1,29.9c4.3,26.1,1.3,42.7-0.8,69.5
	c0,38.3-9.2,90.9,11.1,124.7c2.5,4.1,14.3,13.5,14.3,13.5c6.5,5.1,39.7,35.8,29.4,41.5c-4,2.2-1.3,3.4-4.9,6.4
	c-2.5,2.1-10.2,2.1-10.2,2.1c1.9,9.4-34.1,7.1-36.4,1.2c-0.7-1.7-29.1,8-40.1-11c-2.9-5-2.3-13.3-2.9-14c-1.7-2.1-4.5-3.3-9-4.5
	c-4.5-1.2-7.8-3.3-7.3-7.8c0.4-4.5,3.7-18,3.7-22.9c0-30.9-9.9-70.8-17.2-100.6c-5.9-10.9-16.3-16.1-28.1-17.5
	c-24.5-2.9-54.7,10.3-61.1,20.8c-19.9,33.1-29.1,24.1-26.2,66.7c-1.1,5.5-2.2,10.9-3.3,16.3c4.9,1.8,9.8,3.5,14.7,5.3
	c18.4,10.4,10.5,16.9,1.6,24.3c-14.5,12.2-7.4,12.5-14.3,22.3c0,0,3.3,5.7,6.1,7.3c3.3,1.9,5.3,5.1,6.5,8.7
	c2.3,6.7,2.3,15.4,2.1,21.5c-0.6,12.3-2.5,10.7-12.7,11.5c0,0-0.4,4.9-3.7,5.3c-3.3,0.4-6.9,1.2-9-0.8c-2.1-2.1-12.3-0.4-12.3-0.4
	c2.1,5.4-15.2,4.8-18.8,4.9c-8.5,0.2-6.9-0.7-11.5-5.7c-2.9-2.1-6.1,0-10.2,0s-8.6,2.5-11.9-2.1c-14.3-19.7,2.3-12.6-0.4-37.2
	c-0.4-3.7-2.9-9-2.9-9s-6.5-2.9-11.5-2.9c-21.7,0.3-24.7-0.5-31.5,3.9c-2.9,1.9-6.6,4.7-12.9,9c-12.8,9.6-24,10.4-40.3,8.2
	c-12.1-1.7-66.9-0.7-104.2-4.4c-55.1-5.4-28.3-15.2-44.3-63.1c-6.4-18.5-2.9-42.3,3.6-63.9c4.7-15.5,11.3-31,16.5-46.6
	c-65.9-50.9-77.9-168.9-206.9-91.5c-12.7,7.6-38.3,20.3-20.5-6.5c1.6-2.4,3.4-5.5,5.4-8.6c25.1-37.5,95.3-40.9,134.1-28.7
	c32.5,10.1,61.8,31.1,82.9,60.3c22.9,31.7,35.3,35.7,61.3-1.7c17.3-24.8,32.5-39,52.3-60.5c18.4-19.9,42.3-43.5,63-60.9
	c21.5-18.1,37.1-31.4,53.2-47.1c19.8-19.3,40.5-41.5,57.9-62.9c8.7-10.6,7.9-19.7,3.8-28.4c-2.8-6-7.4-11.7-11.2-17.8
	c-6.1-9.8-10-16.9-17.2-26.2c-2.2-1.7-4.3-3.3-6.5-4.9c-2.7,0.7-5.5,1.3-8.2,2.1c2.7,23.9-5.2,59.1-30.4,68.8
	c-9,3.5-19,1.7-31.3-8.7c-13-10.8-18.2-24.3-27-38.5c-2.1-3.3-7.3-7.8-9.8-15.9c-14.8-49.4,37.8-68,71.8-94.3
	c8.1-9.5,22.1-13.3,33.9-9.4c1.9,0.6,7.3,3.7,9,3.7c1.7,0,4.3,2.3,6.7-0.4c2.5-2.7,4.5-6.7,6.3-8.4c26.4-23.5,34.9-39.9,77.5-44.8
	c0,0,6.3-1.4,8-2.3C592.7,67.7,670.6-33.8,697.5,11.7z"/>
</svg>
