<?xml version="1.0" encoding="utf-8"?>
<!-- Generator: Adobe Illustrator 18.1.1, SVG Export Plug-In . SVG Version: 6.00 Build 0)  -->
<svg version="1.0" id="Layer_1" xmlns="http://www.w3.org/2000/svg" xmlns:xlink="http://www.w3.org/1999/xlink" x="0px" y="0px"
	 width="728px" height="622.2px" viewBox="0 0 728 622.2" enable-background="new 0 0 728 622.2" xml:space="preserve">
<path fill="#010101" d="M722.9,425.7c-14.3-19.9-18.9-41.5-16.7-65.7c0.9-9.9-2.1-20.3-4.1-30.4c-3.9-20.6-11.3-40.7-7.1-60.3
	c-1.8-33.8-1.3-66.1-19.1-94.5C646,127.1,603.8,100.4,546.6,98c-49.3-2.1-96.6,9.1-144.1,19.3c-4.5,1-9.3,5.3-13.9,2.1
	c-23.3-16.1-54.6-11.3-77.1-30.7c-6.9-5.9-10-9.1-6.3-17.5c5.9-13.8,1.9-25.5-11.9-30.5C267.8,31.3,245,17,220.7,5.3
	c-10.5-5.1-21.8-5.9-32.5,1c-12.9,8.3-43.9,6.8-56.5-2.7C122.6-3.1,73,0,65.6,8.3c-2.3,2.6-3,6.7-4.3,10.3
	C55.4,33.9,50.2,49.7,39,62.5C26.2,76.9,21.2,93,28,111.9c1.1,2.9,2.1,7.7,0.5,9.3c-13.7,15-13.7,35.5-22.1,52.5
	c-9.9,19.9-8.7,47.5,6,56.9c13.8,8.9,26.9,19.3,43.7,23.9c18,4.9,34.3,13.8,36.4,35.4c2,19.7,8.1,38.3,17.6,55.1
	c17,29.9,18.1,65.1,32.8,95.6c1.1,2.3,0.6,5.2,0.9,7.8c2.3,16.5,3.5,33.3,7.2,49.5c7,30.7,4.4,35.3-24.9,46.3
	c-9.1,3.3-19.1,9.2-18.9,21.7c0.2,12.9,10.8,11.1,19.2,14.5c9.7,4,19.5,3.8,29.1,6.3c22.4,5.9,40-3.1,50.7-23.8
	c6.4-12.3,8.2-25.5,9.2-39.1c1.8-25.3,0.7-50.7,4.5-76c1.3-8.4,3.9-9.9,11.1-7.9c26.8,7.8,54.1,9.8,81.9,8.2
	c5.1-0.3,7.9,0.1,8.2,6.2c1.3,30.2,8.3,60,7.4,90.5c-0.3,10.6-1.9,19.7-12.5,25.9c-12.1,7.2-17,20.4-22.5,32.8
	c-3.9,8.9-0.5,12.3,8,15.1c11.7,4,23.5,2.4,35.3,3.2c39.1,2.7,60.1-16.3,62.2-55.8c0.4-8.1-0.1-16.1,1.7-24.1
	c8.3-35.7,18.9-71.1,19.2-108.3c0.1-5.9,0.8-11.1,8.7-13.3c14-3.8,27.8-8.7,41.3-14.2c7.4-3,11.5-3.1,14.8,5.2
	c6.3,15.7,15.7,29.3,26.9,42c12.1,13.8,6.7,40.1-9.2,48.1c-9.7,4.9-15.1,13.4-19.7,22.6c-4.4,8.9-3.3,15,8.1,17.6
	c14.5,3.3,29,2.3,43.5,1.8c14.4-0.5,22.1-8.1,24.8-22.7c3.8-20.1,6.7-40.7,16.8-58.9c7.2-13,6.9-25.1,0.5-38.5
	C568,405.7,563,386.9,569,367c4.1-13.6,15.3-16.4,25.1-6.3c3.7,3.9,6.7,8.5,10.2,12.5c17.7,20.1,25.3,46.9,42.8,66.5
	c20.9,23.6,20.3,49.9,16.9,77.6c-1.1,9-3.3,17.4-14.2,21.5c-6.9,2.6-11.1,10-9.3,18.7c1.6,7.9,6.4,10.7,14.1,12.9
	c7.5,2.1,14.9,1.1,22.1,2.6c29.9,6.6,41.5-3.2,44.1-33.6c2.4-27.9,0.1-56.1,5.7-83.9C728.8,445.7,729.1,434.4,722.9,425.7z"/>
</svg>
