<?xml version="1.0" encoding="utf-8"?>
<!-- Generator: Adobe Illustrator 18.1.1, SVG Export Plug-In . SVG Version: 6.00 Build 0)  -->
<svg version="1.0" id="Layer_1" xmlns="http://www.w3.org/2000/svg" xmlns:xlink="http://www.w3.org/1999/xlink" x="0px" y="0px"
	 width="717.9px" height="802.9px" viewBox="0 0 717.9 802.9" enable-background="new 0 0 717.9 802.9" xml:space="preserve">
<g>
	<path fill="#010101" d="M717.5,687c-2.1-12.8,0-48.1,0-48.1S658,579.6,656,563.8c-2.1-15.8,4.1-74.3,5.5-83.4
		c1.4-9,9.6-36.8,10.9-56.3c1.4-19.5-2.7-30.1-8.9-54.1c-6.1-24.1-16.4-27.1-19.1-33.1c-2.7-6-23.9-18-23.9-18l-16.4-6.7
		c-19.8-26.3-120.9-32.3-120.9-32.3l-21.9-0.7c-21.9-0.7-41-3.7-63.5-4.5c-22.5-0.7-62.9-9-83.3-15c-20.5-6-71.7-34.5-71.7-34.5
		c-9.5-4.5-23.9-17.3-28-23.3c-4.1-6-24.6-45.8-35.5-65.3c-10.9-19.5-7.5-9-22.5-30.8S122.5,3.9,122.5,3.9l-0.7-3.4
		c0-3.7-6.1,14.3-7.5,18c-1.4,3.7-0.7,42.8-1.4,33.8c-0.7-9-1.4,24.8-9.6,15.8s-4.1-13.5-9.5-23.3c-5.5-9.7,2.1-23.3,2.7-27.8
		S106.7,5,104,4.2c-2.7-0.7-10.3,7.5-13.7,9.8c-3.4,2.3-10.3,43.6-11.6,54.1c-1.4,10.5-12.3,15.8-20.5,19.5
		c-8.2,3.7-15,18.8-13,21.1c2.1,2.3,4.1,12.8-6.1,15.8c-10.3,3-31.4,14.3-34.1,17.3c-2.7,3-7.5,9-3.4,12.8c4.1,3.7-2.7,9.7,0,27.1
		c2.7,17.3,20.5,29.3,25.9,25.5c5.5-3.7,10.3-4.5,12.3-3.7c2.1,0.7,12.3,13.5,18.5,6.7c6.1-6.7,9.6-1.5,17.1-5.3
		c7.5-3.7,12.3-9,15.1-12.8c2.7-3.7,14.3,24.8,14.3,24.8c8.9,10.5,17.1,64.6,22.5,81.9c5.5,17.3-2.1,48.8-5.5,61.6
		c-3.4,12.8,6.1,48.1,13,59.3c6.9,11.3,34.9,64.6,40.3,78.9s10.3,96.1,12.3,116.5c2.1,20.3,7.5,74.4,7.5,74.4s-3.4,44.3-13,42.1
		c-9.6-2.3-19.8,9.8-28.7,19.5c0,0,6.9,18.8,12.3,20.3c5.5,1.5,14.3-3,21.2,0c6.8,3,11.6-7.5,21.9-13.5s12.3-47.3,10.9-56.3
		c-0.9-6.3,6.7-5.3,9.7-4.3c2.6-0.9,11.3-3.5,4.6-15.9c-8.9-16.5-1.3-97.7-2.7-107.4c-1.4-9.8,8.9-46.6,7.5-53.3
		c-1.3-6.7,3.4-21,3.4-21c5.5,7.5,32.8-4.5,52.6-6c19.8-1.5,164-34.5,168.1-35.3c4.1-0.7,15.7-5.3,20.5-0.7c4.7,4.5,0.7,19.5,0,24.1
		c-0.7,4.5,16.4,0,23.9-4.5c7.5-4.5,10.9,0.7,10.9,0.7c12.7,52.4,100.5,139,100.5,139c29.4,29.3,28.7,57.1,32.1,72.1
		c3.4,15,1.3,32.3-3.4,42.1c-4.8,9.7-10.3,6-18.5,9.7c-8.2,3.7-6.9,21.8,2.7,26.3c9.5,4.5,16.4,2.3,29.4,0c13-2.3,13-21.8,12.3-36.1
		c-0.7-14.3,4.8-33.8,5.5-39.8s1.3-9,1.3-9c17.2,17.9,4.1,75.9,4.1,75.9s-30.7,15-23.2,36.1c7.5,21,29.4-1.5,29.4-1.5l4.8,6.7
		c0,0,15-9,17.1-22.5c2.1-13.5,0.7-29.3,0.7-39.1C712.7,727.6,719.5,699.8,717.5,687z M649.9,460.7c-0.7,3.7-2.3,20.8-8.9,25.1
		c-6.6,4.3,3.7-58.1,2.9-66.6c-0.7-8.5,5.9-14.3,5.9-14.3c1.1,3.5,1.8,20,2.1,25.8C652.1,436.4,650.5,456.9,649.9,460.7z"/>
</g>
</svg>
