<!--?xml version="1.0" encoding="UTF-8" standalone="no" ?-->
<svg xmlns="http://www.w3.org/2000/svg" xmlns:xlink="http://www.w3.org/1999/xlink" version="1.1" width="620" height="620" xml:space="preserve"><desc>Created with Fabric.js 1.5.0</desc><defs><style type="text/css">@import url("http://fonts.googleapis.com/css?family=Lato:400,300|Adamina|Anton|Alike+Angular|Actor|ABeeZee|Aguafina+Script|Akronim|Alex+Brush|Abel");</style></defs><defs></defs><g transform="translate(310 310)">
<image xlink:href="http://ihatetshirts.com/uploads/B3005/Bella_+_Canvas_3005_Ash_Back_High-1wtkrebc-large.jpg" x="-248" y="-310" style="stroke: none; stroke-width: 1; stroke-dasharray: ; stroke-linecap: butt; stroke-linejoin: miter; stroke-miterlimit: 10; fill: rgb(0,0,0); fill-rule: nonzero; opacity: 1;" width="496" height="620" preserveAspectRatio="none"></image>
</g>
<rect x="-102" y="-141.5" rx="0" ry="0" width="204" height="283" style="stroke: #000000; stroke-width: 1; stroke-dasharray: 3 3; stroke-linecap: butt; stroke-linejoin: miter; stroke-miterlimit: 10; fill: none; fill-rule: nonzero; opacity: 0;" transform="translate(311.5 311.5)"></rect>
<g style="stroke: none; stroke-width: 1; stroke-dasharray: ; stroke-linecap: butt; stroke-linejoin: miter; stroke-miterlimit: 10; fill: none; fill-rule: nonzero; opacity: 1;" transform="translate(256.43 195.13000000000002) scale(0.21 0.21)">
<path d="M 4504.296 729.676 h -198.12 v 4139.239 h 188.18 c 66.38 0 67.56 94.85 67.56 107.82 c 0 13.71 -1.01 103.02 -67.56 103.02 h -188.18 v 37.79 c 0 31.86 -22.58 67.43 -63.69 70.77 c -314.2 24.45 -619.13 256.04 -760.49 363.86 c -4.04 3.34 -8.08 6.3 -11.96 9.27 c -23.75 18.15 -47.67 36.68 -72.1 55.58 c -164.94 129.31 -357.67 282.34 -583.76 282.34 c -41.62 0 -84.24 -5.18 -127.87 -16.3 c -91.99 -23.71 -147.75 -108.19 -149.61 -201.57 v -4.45 c 0 -104.86 80.7 -207.13 201.83 -208.24 h 2.03 c 25.94 0 50.37 3.71 72.94 10.38 c 5.06 -14.45 7.25 -29.27 7.25 -43.36 c 0 -80.77 -73.96 -153.4 -149.77 -154.5 h -4.21 c -87.28 0 -148.09 35.93 -174.71 77.44 c 11.12 13.7 16.84 31.12 16.84 47.79 c 0 24.46 -12.8 51.51 -37.9 65.22 c 1.01 4.81 1.52 9.63 1.52 15.19 c 0 31.5 -22.92 62.62 -33.87 78.92 c -21.73 31.87 -38.75 58.92 -38.75 90.79 c 0 10 1.85 21.49 6.74 34.45 c 26.96 71.15 39.42 128.58 39.42 176.38 c 0 122.64 -82.55 164.14 -141.34 195.27 c -1.35 0.74 -2.7 1.48 -4.05 2.23 c -12.3 6.66 -27.12 6.66 -39.42 0 c -1.18 -0.75 -2.53 -1.49 -3.87 -1.86 c -58.8 -31.13 -141.19 -73 -141.19 -195.64 c 0 -47.43 12.47 -105.23 39.43 -176.38 c 4.88 -12.96 6.74 -24.45 6.74 -34.45 c 0 -31.87 -17.02 -58.92 -38.75 -90.79 c -10.95 -16.3 -33.87 -47.42 -33.87 -78.92 c 0 -5.56 0.51 -10.38 1.52 -15.19 c -25.1 -13.71 -37.91 -40.76 -37.91 -65.22 c 0 -16.67 5.73 -34.09 16.85 -47.79 c -26.62 -41.51 -87.44 -77.44 -174.71 -77.44 h -4.21 c -75.81 1.1 -149.77 73.73 -149.77 154.5 c 0 14.09 2.19 28.91 7.24 43.36 c 22.58 -6.67 47.01 -10.38 72.95 -10.38 h 2.02 c 121.14 1.11 201.84 103.38 201.84 208.24 v 4.45 c -1.86 93.38 -57.62 177.86 -149.61 201.57 c -43.63 11.12 -86.26 16.3 -127.87 16.3 c -226.09 0 -418.83 -153.03 -583.76 -282.34 c -24.43 -18.9 -48.35 -37.43 -72.1 -55.58 c -3.88 -2.97 -7.93 -5.93 -11.97 -9.27 c -141.347 -107.82 -446.285 -339.41 -760.484 -363.86 c -41.109 -3.34 -63.684 -38.91 -63.684 -70.77 v -37.79 H 67.559 c -66.551 0 -67.559 -89.31 -67.559 -103.02 c 0 -12.97 1.18 -107.82 67.559 -107.82 h 188.519 V 729.676 H 77.496 c -66.547 0 -67.559 -89.301 -67.559 -103.008 c 0 -12.973 1.18 -107.828 67.559 -107.828 h 178.582 v -7.41 c 0 -289.387 146.235 -501.703 522.098 -501.703 c 164.766 0 373 40.758 632.28 130.058 c 146.24 50.391 274.27 70.028 385.47 70.028 c 208.06 0 360.02 -69.29 462.79 -141.543 c 14.49 -10.375 33.86 -10.375 48.35 0 c 102.94 72.254 253.22 141.543 460.27 141.543 c 110.52 0 238.22 -19.637 384.46 -70.028 c 259.28 -89.301 467.51 -130.058 632.28 -130.058 c 375.86 0 522.1 212.316 522.1 501.703 v 7.41 h 198.12 c 66.38 0 67.56 94.855 67.56 107.828 C 4571.856 640.375 4570.846 729.676 4504.296 729.676 L 4504.296 729.676 z M 2195.066 5705.975 c -84.75 235.52 0 276.46 85.89 321.78 c 85.9 -45.32 171.01 -86.26 86.26 -321.78 c -54.72 -132.59 124.51 -203.85 39.62 -250.35 h -251.4 C 2070.546 5502.125 2249.776 5573.385 2195.066 5705.975 z M 2127.136 5438.095 h 307.97 c 42.29 0 42.29 -63.34 0 -63.34 h -307.97 C 2084.856 5374.755 2084.856 5438.095 2127.136 5438.095 z M 298.196 5117.495 c 0 14.32 9.941 27.63 24.765 28.81 c 338.633 26.45 662.27 280.68 794.855 381.59 c 218.51 166.62 456.06 389.68 747.52 314.37 c 70.76 -18.36 116.58 -83.73 118.1 -161.73 c 1.85 -86.43 -63.85 -168.81 -160.05 -169.49 c -35.38 -0.33 -67.56 7.75 -96.03 20.89 c -83.57 -135.95 34.37 -290.95 163.25 -292.63 c 111.36 -1.69 196.77 49.53 226.26 117.42 h 328.52 c 29.48 -67.89 114.9 -119.11 226.26 -117.42 c 128.88 1.68 246.81 156.68 163.25 292.63 c -28.47 -13.14 -60.65 -21.22 -96.03 -20.89 c -96.2 0.68 -161.9 83.06 -160.05 169.49 c 1.52 78 47.34 143.37 118.1 161.73 c 291.46 75.31 529.01 -147.75 747.52 -314.37 c 132.58 -100.91 456.22 -355.14 794.85 -381.59 c 14.83 -1.18 24.77 -14.49 24.77 -28.81 v -58.12 H 298.196 L 298.196 5117.495 L 298.196 5117.495 z M 67.559 4911.115 c -28.027 15.5 -27.332 103.44 0 126.36 h 4426.827 c 27.33 -22.92 28.02 -110.86 0 -126.36 C 4494.386 4911.115 67.559 4911.115 67.559 4911.115 z M 4264.056 4882.305 V 713.777 H 298.196 v 4168.528 H 4264.056 z M 4264.056 511.477 c 0 -390.379 -274.04 -616.196 -1098.54 -332.02 c -431.89 148.793 -716.04 40.484 -882.61 -76.762 c -166.56 117.246 -454.28 225.555 -886.17 76.762 c -824.497 -284.176 -1098.54 -58.359 -1098.54 332.02 v 14.722 h 3965.86 C 4264.056 526.199 4264.056 511.477 4264.056 511.477 z M 4504.326 561.141 H 77.496 c -28.023 15.5 -27.332 103.441 0 126.351 h 4426.83 C 4531.656 664.582 4532.355 576.641 4504.326 561.141" style="stroke: none; stroke-width: 1; stroke-dasharray: ; stroke-linecap: butt; stroke-linejoin: miter; stroke-miterlimit: 10; fill: #070607; fill-rule: nonzero; opacity: 1;" transform=" matrix(0.125 0 0 -0.125 0 758.75) " stroke-linecap="round"></path>
<path d="M 4095.576 882.25 v 3831.585 H 466.668 V 882.25 H 4095.576 z M 525.633 4654.865 h 3510.983 V 941.215 H 525.633 L 525.633 4654.865" style="stroke: none; stroke-width: 1; stroke-dasharray: ; stroke-linecap: butt; stroke-linejoin: miter; stroke-miterlimit: 10; fill: #070607; fill-rule: nonzero; opacity: 1;" transform=" matrix(0.125 0 0 -0.125 0 758.75) " stroke-linecap="round"></path>
</g>
</svg>