<?xml version="1.0" encoding="utf-8"?>
<!-- Generator: Adobe Illustrator 18.1.1, SVG Export Plug-In . SVG Version: 6.00 Build 0)  -->
<svg version="1.0" id="Layer_1" xmlns="http://www.w3.org/2000/svg" xmlns:xlink="http://www.w3.org/1999/xlink" x="0px" y="0px"
	 width="647.965px" height="171.388px" viewBox="0 0 647.965 171.388" enable-background="new 0 0 647.965 171.388"
	 xml:space="preserve">
<g id="g10_2_" transform="matrix(1.25,0,0,-1.25,0,173.75)">
	<g id="g12_2_" transform="scale(0.1,0.1)">
		<path id="path14_2_" fill="#070607" d="M5145.859,663.036l37.86,27.324l-42.27,19.516c-92.76,43.094-188.05,83.301-282.7,120.695
			l37.23,94.227l9.47,25.449l-25.24,9.918C4158.969,1243.32,3384.089,1390,2607.949,1390c-775.51,0-1551.64-146.68-2273.52-429.835
			l-25.871-9.918l10.098-25.449v-0.543c-5.047-2.032-10.098-3.985-15.145-6.012l-25.242-9.918l10.098-25.449l26.504-68.543
			c-80.77-32.711-161.539-67.453-241.676-104.301l-42.277-19.594l23.348-17.019c-3.785-1.797-7.574-3.512-11.359-5.309L0,648.513
			l37.859-27.399c97.176-70.184,190.563-143.18,282.691-217.266c-12.621-114.21-22.086-227.566-27.765-340.14l-2.524-44.734
			l41.016,18.422c157.117,71.199,316.766,135.293,480.195,192.442l53.004,18.422l-10.094,27.949l40.383,13.972l-32.179,92.825
			c552.763,179.636,1133.913,272.066,1715.073,272.066c595.04,0,1189.45-97.039,1753.57-285.34l-42.28-121.551l53.01-18.421
			c163.43-57.149,323.07-121.243,480.2-192.442l41.01-18.422l-2.52,44.734c0,4.059,0,8.195-0.63,12.254l33.44-15.066l-1.9,44.734
			c-5.67,107.343-14.51,215.39-25.87,324.214c81.4,65.11,164.7,129.282,249.88,191.348l37.23,27.32l-16.4,7.653
			C5139.549,658.352,5142.699,660.692,5145.859,663.036L5145.859,663.036z M350.472,104.196
			c6.039,116.789,16.114,234.582,29.203,353.383C284,535.102,186.312,611.618,84.594,685.11
			c96.684,44.301,193.368,85.578,291.055,123.836l192.359-488.289c88.625-5.035,177.25-13.09,264.868-23.156
			C668.714,240.114,508.586,175.68,350.472,104.196z M598.218,331.829c74.528,29.195,149.051,56.379,224.586,82.555l37.266-107.723
			C773.457,316.727,686.843,325.79,598.218,331.829z M2608.259,724.27c-692.89,0-1385.77-130.882-2031.334-383.586l-232.64,594
			c719.074,281.906,1491.524,427.886,2263.974,427.886c772.46,0,1543.9-145.98,2261.97-427.886l-232.64-594
			C3993.039,593.388,3301.159,724.27,2608.259,724.27z M4391.85,414.278c75.54-26.18,150.06-53.363,223.58-82.558
			c-86.61-6.04-174.23-15.102-260.84-25.168L4391.85,414.278z M4834.979,457.47c13.09-118.797,23.17-236.594,29.21-353.379
			c-158.12,71.48-318.25,135.914-482.41,193.3c87.62,10.071,176.25,18.122,264.87,23.157l192.36,488.289
			c97.69-38.254,195.38-79.535,291.05-123.832C5029.35,611.509,4930.659,534.993,4834.979,457.47"/>
	</g>
</g>
</svg>
