<?xml version="1.0" encoding="utf-8"?>
<!-- Generator: Adobe Illustrator 18.1.1, SVG Export Plug-In . SVG Version: 6.00 Build 0)  -->
<svg version="1.0" id="Layer_1" xmlns="http://www.w3.org/2000/svg" xmlns:xlink="http://www.w3.org/1999/xlink" x="0px" y="0px"
	 width="633.437px" height="490.033px" viewBox="0 0 633.437 490.033" enable-background="new 0 0 633.437 490.033"
	 xml:space="preserve">
<g id="g10_6_" transform="matrix(1.25,0,0,-1.25,0,491.25)">
	<g id="g12_6_" transform="scale(0.1,0.1)">
		<path id="path14_6_" fill="#070607" d="M4889.098,1524.03h-627.24c63.32,184.73,97.53,382.88,97.53,588.75
			c0,1003.59-813.63,1817.22-1817.22,1817.22c-1001.09,0-1834.086-811.25-1834.086-1817.22c0-205.87,34.215-404.02,97.531-588.75
			H178.492c-138.043,0-223.691-150.16-153.367-268.95L710.578,97.175C742.652,43.003,800.98,9.737,863.941,9.737h3339.587
			c62.96,0,121.3,33.266,153.37,87.438l685.45,1157.905C5112.678,1373.87,5027.148,1524.03,4889.098,1524.03L4889.098,1524.03z
			 M4203.578,187.917H863.922L178.445,1345.82h898.113c-121.629,228.76-190.3,489.8-190.3,766.96
			c0,905.14,750.84,1639.01,1655.97,1639.01c905.14,0,1639.01-733.87,1639.01-1639.01c0-277.16-68.67-538.2-190.29-766.96h898.1
			L4203.578,187.917"/>
	</g>
</g>
</svg>
