<?xml version="1.0" encoding="utf-8"?>
<!-- Generator: Adobe Illustrator 18.1.1, SVG Export Plug-In . SVG Version: 6.00 Build 0)  -->
<svg version="1.0" id="Layer_1" xmlns="http://www.w3.org/2000/svg" xmlns:xlink="http://www.w3.org/1999/xlink" x="0px" y="0px"
	 width="627.075px" height="325.088px" viewBox="0 0 627.075 325.088" enable-background="new 0 0 627.075 325.088"
	 xml:space="preserve">
<g id="g10_1_" transform="matrix(1.25,0,0,-1.25,0,326.25)">
	<g id="g12_1_" transform="scale(0.1,0.1)">
		<path id="path14_1_" fill="#070607" d="M5016.601,1309.39c0,170.03-51.84,357.16-145.92,495.57
			c62.2,252.32-77.76,446.07-220.83,388.26c-540.41-211.88-1092.74,417.04-2138.57,416.78
			c-1045.83,0.26-1604.121-628.66-2144.527-416.78c-143.07,57.81-283.035-135.94-220.828-388.26C51.84,1666.55,0,1479.94,0,1309.91
			s51.84-357.162,145.926-495.569c-62.207-252.32,77.758-446.062,220.828-388.265C907.16,637.963,1465.451,9.04,2511.281,9.298
			c1045.83-0.258,1598.16,628.665,2138.57,416.778c143.07-57.797,283.03,135.945,220.83,388.265
			C4964.761,952.748,5016.601,1139.36,5016.601,1309.39z M4699.191,545.857c-589.24,242.918-1173.31-406.926-2193.8-406.926
			c-1020.5,0-1598.738,649.844-2187.985,406.926c-78.996,64.984-64.75,187.219-29.136,295.523
			C190.492,954.33,129.625,1140,129.625,1310.2s60.867,355.09,158.645,468.04c-35.614,108.31-49.86,230.54,29.136,295.53
			c589.247-242.92,1167.485,406.92,2187.985,406.92c1020.49,0,1604.56-649.84,2193.8-406.92c79-64.99,64.75-187.22,29.14-295.53
			c97.78-112.95,158.65-297.84,158.65-468.04s-60.87-355.87-158.65-468.82C4763.941,733.076,4778.191,610.841,4699.191,545.857"/>
	</g>
</g>
</svg>
