<?xml version="1.0" encoding="utf-8"?>
<!-- Generator: Adobe Illustrator 18.1.1, SVG Export Plug-In . SVG Version: 6.00 Build 0)  -->
<svg version="1.0" id="Layer_1" xmlns="http://www.w3.org/2000/svg" xmlns:xlink="http://www.w3.org/1999/xlink" x="0px" y="0px"
	 width="642.388px" height="174.634px" viewBox="0 0 642.388 174.634" enable-background="new 0 0 642.388 174.634"
	 xml:space="preserve">
<g id="g10" transform="matrix(1.25,0,0,-1.25,0,176.25)">
	<g id="g12" transform="scale(0.1,0.1)">
		<path id="path14" fill="#070607" d="M4728.135,1203.89c-40.1,119.66-152.87,206.11-286.31,206.11H697.285
			c-133.445,0-246.21-86.45-286.308-206.11C177.297,1161.91,0,957.051,0,711.465C0,465.254,177.297,261.02,410.977,219.043
			C451.075,99.383,563.84,12.926,697.285,12.926h3744.54c133.44,0,246.21,86.457,286.31,206.117
			c233.68,41.977,410.97,246.211,410.97,492.422C5139.105,957.051,4961.815,1161.91,4728.135,1203.89z M4640.355,313.711
			c0-109.008-88.96-197.969-198.6-197.969H697.215c-109.637,0-198.597,88.961-198.597,197.969
			c-218.645,1.254-395.946,178.555-395.946,397.824c0,218.645,177.301,396.575,395.946,397.825
			c0,109.63,88.96,197.97,198.597,197.97h3744.54c109.64,0,198.6-88.34,198.6-197.97c218.65-1.25,395.94-179.18,395.94-397.825
			C5036.295,492.266,4859.005,314.965,4640.355,313.711"/>
	</g>
</g>
</svg>
