<?xml version="1.0" encoding="utf-8"?>
<!-- Generator: Adobe Illustrator 18.1.1, SVG Export Plug-In . SVG Version: 6.00 Build 0)  -->
<svg version="1.0" id="Layer_1" xmlns="http://www.w3.org/2000/svg" xmlns:xlink="http://www.w3.org/1999/xlink" x="0px" y="0px"
	 width="647.745px" height="353.128px" viewBox="0 0 647.745 353.128" enable-background="new 0 0 647.745 353.128"
	 xml:space="preserve">
<g id="g10_2_" transform="matrix(1.25,0,0,-1.25,0,353.75)">
	<g id="g12_2_" transform="scale(0.1,0.1)">
		<path id="path14_2_" fill="#070607" d="M3155.907,2830c-10.2-220.33-170.93-393.6-564.54-393.6
			c-393.6,0-555.12,173.27-565.32,393.6c-878.94-3.13-862.48-516.71-2026.046-776.23l263.45-1471.714
			c59.59-335.582,290.89-577.078,752.707-577.078h3149.63c461.83,0,693.13,241.496,752.72,577.078l263.45,1471.714
			C4018.388,2313.29,4034.857,2826.87,3155.907,2830L3155.907,2830z M4812.457,601.138c-50.67-283.613-236.39-488.187-646.4-488.187
			h-3149.95c-410.013,0-595.728,204.574-646.403,488.187L124.387,1972.12c1035.97,258.41,1093.27,711.18,1809.06,747.46
			c61.91-240.13,276.7-391.15,657.92-391.15s595.44,151.02,657.34,391.15c715.8-36.28,773.1-489.05,1809.07-747.46L4812.457,601.138
			"/>
	</g>
</g>
</svg>
