<?xml version="1.0" encoding="utf-8"?>
<!-- Generator: Adobe Illustrator 18.1.1, SVG Export Plug-In . SVG Version: 6.00 Build 0)  -->
<svg version="1.0" id="Layer_1" xmlns="http://www.w3.org/2000/svg" xmlns:xlink="http://www.w3.org/1999/xlink" x="0px" y="0px"
	 width="669.325px" height="514.04px" viewBox="0 0 669.325 514.04" enable-background="new 0 0 669.325 514.04"
	 xml:space="preserve">
<g id="g10_5_" transform="matrix(1.25,0,0,-1.25,0,516.25)">
	<g id="g12_5_" transform="scale(0.1,0.1)">
		<path id="path14_5_" fill="#070607" d="M5328.992,912.32c-94.34,42.075-190.59,83.547-287.7,122.77l33.69,84.67
			c8.99,22.21-1.89,47.43-24.19,56.16c-12.09,4.75-24.19,9.5-36.28,14.26c160.18,267.13,250.2,566.76,250.2,883.66
			c0,860-661.28,1587.46-1584.34,1896.06c-308.44,103.16-647.29,160.1-1002.38,160.1s-693.94-56.94-1002.37-160.1
			C752.556,3661.3,91.275,2933.84,91.275,2073.84c0-316.73,90.023-616.18,250.031-883.15c-12.613-4.92-25.231-9.85-37.668-14.77
			c-22.121-8.81-33.008-33.78-24.367-55.9l33.176-84.93c-96.418-39.223-192.493-80.605-286.836-122.77
			c-30.238-13.562-34.73-54.687-7.949-74.3c102.293-75.078,201.653-150.848,297.207-229.211
			c-11.406-121.645-20.218-241.567-25.918-362.606c-1.554-32.484,31.965-55.035,61.512-41.211
			c180.051,84.582,366.668,158.797,557.434,222.645c22.461,7.516,34.73,31.965,27.129,54.601l-28.86,86.829
			c2.075,0.605,4.149,1.296,6.051,1.988c222.036-164.758,480.196-298.586,763.406-393.277
			c308.43-103.161,647.28-160.094,1002.37-160.094s693.94,56.934,1002.38,160.094c282.86,94.601,540.84,228.171,762.54,392.671
			c1.38-0.433,2.93-0.949,4.32-1.382l-28.86-86.829c-7.61-22.55,4.49-47,27.13-54.601c189.9-63.848,377.38-138.152,558.98-221.695
			c29.38-13.563,62.73,8.984,61.18,41.382c-5.88,119.918-14.69,239.84-26.79,361.485c96.42,78.363,195.78,154.219,298.07,229.211
			C5363.721,857.633,5359.231,898.758,5328.992,912.32L5328.992,912.32z M150.161,2074.02
			c0,1102.48,1132.621,1996.11,2528.131,1997.15c1395.51,0,2527.09-894.67,2527.09-1997.15c0-324.2-97.67-629.7-270.17-899.86
			c-169.37,63.38-341.86,120.54-515.39,169.37c175.61,225.49,267.05,480.07,267.05,730.49c0,537.21-422.91,1092.09-1189.77,1347.71
			c-248.34,84.17-525.78,130.93-818.81,130.93c-294.06,0-570.47-46.76-819.85-130.93
			c-766.85-255.62-1189.769-810.5-1189.769-1347.71c0-250.42,91.442-503.97,267.051-730.49
			C762.193,1294.7,589.7,1238.58,420.329,1175.2C247.837,1445.36,150.161,1750.86,150.161,2074.02z M4400.832,1354.07
			c-572.81,143.16-1143.72,236.47-1724.65,236.47c-581.45,0-1162.39-79.92-1721.892-235.69
			c-172.965,223.24-264.027,474.14-264.027,719.16c0,525.29,414.359,1072.88,1174.999,1327.23
			c247.44,82.77,521.31,129.77,812.99,129.77c290.81,0,565.55-47.35,811.96-129.77c760.64-254.52,1175-801.94,1175-1327.23
			C4665.212,1828.99,4573.802,1576.28,4400.832,1354.07L4400.832,1354.07z M348.63,270.098
			c6.238,120.535,16.625,242.109,30.137,364.726C280.052,714.832,178.22,793.805,74.31,869.66
			c98.715,45.719,199.508,88.325,300.301,127.809l198.468-503.965c91.438-5.191,182.879-13.508,273.282-23.898
			C676.99,410.379,511.771,343.875,348.63,270.098z M605.29,504.934c75.856,30.133,152.746,58.187,230.68,85.207l38.445-111.184
			C785.056,489.348,694.654,498.699,605.29,504.934z M2678.932,76.863c-668.11,0-1273.08,204.329-1725.333,536.7
			c237.873,75.422,481.623,135.211,728.313,178.84c57.27-23.93,116-46.309,176.2-67.129
			c249.62-83.118,525.67-129.856,820.82-129.856c292.2,0,569.72,46.738,817.88,129.856c61.67,20.734,118.94,42.937,176.2,66.785
			c245.22-43.633,488.97-103.332,728.31-178.672C3949.062,281.192,3344.102,76.863,2678.932,76.863z M1722.012,799.313
			c315,53.48,634.5,80.609,953.99,80.609c320.36,0,641.07-27.301,957.11-80.953c-46.48-18.836-93.48-36.547-143.25-53.223
			c-245.71-82.422-520.97-128.73-810.92-128.73c-292.88,0-566.76,45.793-814.03,128.73
			C1816.352,762.078,1768.842,780.219,1722.012,799.313L1722.012,799.313z M2676.212,910.184
			c-714.9,0-1428.76-135.082-2093.781-395.895L342.396,1127.36c740.876,290.94,1536.836,441.61,2333.816,441.61
			c796.99,0,1593.98-150.67,2335.9-441.61l-240.03-613.071C4106.012,775.102,3391.112,910.184,2676.212,910.184z M4518.472,590.141
			c77.93-27.02,154.83-55.074,231.72-85.207c-91.44-6.235-180.8-15.586-270.17-25.977L4518.472,590.141L4518.472,590.141z
			 M4975.682,634.824c13.5-122.617,23.89-244.191,30.13-364.726c-163.14,73.777-328.36,140.281-497.73,199.508
			c90.4,10.39,181.84,18.707,273.28,23.898l198.47,503.965c100.79-39.484,200.55-82.09,300.3-127.809
			C5175.181,793.805,5074.391,714.832,4975.682,634.824"/>
	</g>
</g>
</svg>
