<?xml version="1.0" encoding="utf-8"?>
<!-- Generator: Adobe Illustrator 18.1.1, SVG Export Plug-In . SVG Version: 6.00 Build 0)  -->
<svg version="1.0" id="Layer_1" xmlns="http://www.w3.org/2000/svg" xmlns:xlink="http://www.w3.org/1999/xlink" x="0px" y="0px"
	 width="498.434px" height="357.153px" viewBox="0 0 498.434 357.153" enable-background="new 0 0 498.434 357.153"
	 xml:space="preserve">
<g id="g10_2_" transform="matrix(1.25,0,0,-1.25,0,357.5)">
	<g id="g12_2_" transform="scale(0.1,0.1)">
		<path id="path14_2_" fill="#070607" d="M3982.195,2507.21l-305.27,345.66c-3.98,4.5-9.65,7.13-15.73,7.13H326.278
			c-6.086,0-11.75-2.63-15.734-7.13L5.27,2507.21c-5.246-5.87-6.715-14.16-3.777-21.4l26.434-69.34
			c10.281-26.75,23.711-50.87,33.781-69.13c29.371-53.61,65.043-115.29,61.261-285.02c-5.242-197-34.617-548.85,61.899-873.94
			c185.89-625.956,668.867-738.096,1066.247-833.659c247.16-62.418,482.98-116.968,644.53-267.816l84.14-78.465
			c7.97-7.555,20.56-7.555,28.53,0l83.51,78.465c161.55,150.848,397.37,205.398,644.53,267.816
			c397.38,95.563,880.36,207.703,1066.25,833.659c96.51,325.09,67.14,676.94,61.89,873.94c-3.78,169.73,31.89,231.41,61.26,285.02
			c10.08,18.26,23.5,42.38,33.78,69.13l26.44,69.34C3988.915,2493.05,3987.445,2501.34,3982.195,2507.21L3982.195,2507.21z
			 M3868.305,2469.67l-5.96-15.62c-31.18-81.56-107.74-141.36-101.79-394.4c5.74-203.61,31.64-541-57.76-841.46
			c-167.56-564.992-592.33-665.738-993.03-762.137c-259.03-62.258-504.76-122.168-688.61-292.425l-20.86-19.075
			c-3.9-3.683-10.08-3.683-14.21,0l-20.4,19.075c-183.85,170.257-429.58,230.167-688.61,292.425
			C876.376,552.452,451.61,653.198,284.04,1218.19c-89.399,300.46-63.496,637.85-57.766,841.46
			c5.961,253.04-70.601,312.84-101.777,394.4l-5.961,15.62c-1.375,3.68-0.688,7.7,1.836,10.72l239.086,271.11
			c2.062,2.23,5.043,3.57,8.027,3.57h3251.87c2.98,0,5.96-1.34,8.02-3.57l227.63-258.4l11.23-12.71
			C3868.985,2477.37,3869.675,2473.24,3868.305,2469.67"/>
		<path id="path16_1_" fill="#070607" d="M381.305,2716.02l-218.867-248.37c26.457-69.51,110.637-149.78,104.223-408.93
			c-5.61-205.81-30.465-538.23,56.121-829.71c161.144-542.535,564.406-638.972,966.063-735.414
			c256.55-61.961,512.3-123.379,704.71-301.711c192.41,178.332,448.16,239.75,704.71,301.711
			c401.65,96.442,804.92,192.879,966.06,735.414c86.59,291.48,61.73,623.9,56.12,829.71c-6.41,259.15,77.77,339.42,104.22,408.93
			l-218.87,248.37C3605.795,2716.02,381.305,2716.02,381.305,2716.02z M3360.665,2107.31c-13.36,62.68-18.23,126.59,12.12,187.7
			c2.38,4.72,8.95,4.49,12.01,0.45c59.01-77.84,96.95-175.34,91.97-273.74c-2.15-43.81-19.6-100.65-37.72-140.18
			c-11.78-25.5-32.96-46.29-40.09-73.13c-2.72-10.33-15.18-5.84-19.94,0.78c-25.37,35.39-78.14,73.36-111.9,98.07
			c-40.2,29.43-73.96,66.16-106.58,103.22c-31.03,35.28-65.12,84.25-84.83,126.82c-3.17,6.74-7.25,14.83-7.25,22.47
			c1.47,2.13,3.17,4.04,5.89,4.04c10.42-4.15,28.32-19.21,36.7-25.61c17.89-13.59,32.28-25.05,51.87-35.61
			c25.03-13.59,51.65-24.48,76.34-38.41c38.62-21.91,59.46-62.57,80.75-99.53c11.56-20.21,22.09-40.88,32.4-61.77
			c3.28-6.63,14.95-9.21,16.19,0C3378.115,1972.86,3375.395,2037.9,3360.665,2107.31L3360.665,2107.31z M3148.795,2456.07
			c34.1-12.81,66.03-42.8,90.84-84.59c21.86-37.18,39.53-87.72,47.91-129.74c10.19-51,2.26-103.9,16.31-154.44
			c7.25-24.27-21.07-18.09-30.58-7.53c-39.41,43.81-125.38,84.69-170.8,107.61c-49.04,24.71-92.53,58.29-133.99,93.9
			c-11.66,10-40.66,36.06-46.55,55.61c-1.59,5.39,3.96,11.3,8.95,9.43c89.1-33.38,119.5-62.14,175.33-92.44
			c36.27-19.69,80.98-43.92,110.99-69.31c10.08-8.54,25.37-0.34,23.67,12.69c-8.6,65.04-40.77,128.5-67.61,186.69
			c-10.53,22.69-21.3,44.82-33.64,66.61C3136.345,2456.4,3144.615,2457.64,3148.795,2456.07L3148.795,2456.07z M2814.055,2583.08
			c74.3-18.09,134.32-66.28,194.92-109.86c38.28-27.52,68.64-58.74,100.69-105.14c6.12-8.87,27.3-37.06,28.99-48.75
			c-0.56-1.46-1.13-3.03-1.81-4.49c-18.11,0.6-33.11,8.1-46.55,16.4c-39.34,24.31-78.37,48.75-117.11,73.8
			c-65.35,42.34-130.48,98.51-169.66,166.69C2799.665,2578.47,2807.145,2584.76,2814.055,2583.08L2814.055,2583.08z
			 M977.688,2473.22c60.597,43.58,120.627,91.77,194.927,109.86c6.91,1.68,14.38-4.61,10.53-11.35
			c-39.19-68.18-104.32-124.35-169.66-166.69c-38.742-25.05-77.625-49.73-117.121-73.8c-23.879-14.55-43.879-24.55-51.379-17.05
			c-3.75,5,25.898,45.02,32.012,53.89C909.051,2414.48,939.407,2445.7,977.688,2473.22L977.688,2473.22z M682.809,2087.3
			c14.047,50.54,6.117,103.44,16.313,154.44c8.379,42.02,26.051,92.56,47.906,129.74c24.809,41.79,56.742,71.78,90.836,84.59
			c4.191,1.57,12.457,0.33,9.176-5.51c-12.344-21.79-23.106-43.92-33.637-66.61c-26.848-58.19-59.012-121.65-67.617-186.69
			c-1.699-13.03,13.59-21.23,23.668-12.69c30.015,25.39,74.98,53.92,110.996,69.31c58.332,25.16,83.285,42.81,175.335,92.44
			c4.68,2.53,10.53-4.04,8.94-9.43c-5.89-19.55-34.88-45.61-46.55-55.61c-41.452-35.61-84.944-69.19-133.983-93.9
			c-45.422-22.92-131.387-63.8-170.801-107.61C703.876,2069.21,675.559,2063.03,682.809,2087.3L682.809,2087.3z M601.872,2295.46
			c3.054,4.04,9.625,4.27,12.004-0.45c30.351-61.11,25.484-125.02,12.117-187.7c-14.723-69.41-17.442-134.45-7.93-204.43
			c1.246-9.21,12.914-6.63,16.199,0c10.309,20.89,20.84,41.56,32.395,61.77c21.293,36.96,42.129,77.62,80.75,99.53
			c24.691,13.93,51.308,24.82,76.34,38.41c19.593,10.56,33.98,22.02,51.875,35.61c8.383,6.4,35.613,25.99,42.586,21.57
			c6.777-5.58-4.078-15.73-7.25-22.47c-19.707-42.57-53.797-91.54-84.832-126.82c-32.621-37.06-66.371-73.79-106.578-103.22
			c-33.754-24.71-86.536-62.68-111.903-98.07c-4.758-6.62-17.215-11.11-19.933-0.78c-7.137,26.84-28.317,47.63-40.094,73.13
			c-18.121,39.53-35.567,96.37-37.719,140.18C504.919,2120.121,542.86,2217.621,601.872,2295.46L601.872,2295.46z M383.661,1967.46
			c6.23,10.67,12.457,19.43,19.254,4.94c8.832-19.09,12.461-26.06,24.804-43.02c16.196-21.9,31.036-45.49,49.039-66.05
			c22.09-25.38,38.852-51.89,53.801-82.11c28.09-56.5,48.477-115.13,79.739-170.4c14.835,48.19,19.48,95.82,42.925,141.2
			c27.973,54.14,72.825,89.63,107.254,138.95c8.727,12.35,15.746,25.83,23.676,38.64c2.379,3.82,8.152,1.68,7.812-2.59
			c-1.359-19.43-4.531-39.76-7.132-58.85c-6.91-49.32-26.844-104.58-48.821-149.18c-20.156-40.88-49.605-80.08-70.105-121.87
			c-11.324-23.36-20.613-49.98-20.953-67.84c-0.114-8.43-11.211-10.11-15.973-3.93c-38.051,49.98-93.664,74.69-143.047,111.42
			c-37.941,28.08-71.578,92.33-81.773,136.48c-10.871,46.84-22.086,93.9-25.711,141.87
			C376.751,1937.92,372.786,1948.82,383.661,1967.46L383.661,1967.46z M378.126,1678.03c-2.043,7.19,0.675,26.4,12.57,9.78
			c14.043-18.99,29.219-36.06,46.664-52.12c55.156-51,105.781-110.98,167.625-153.89c40.32-27.97,66.824-72.23,90.836-113.9
			c4.074-7.08,23.672-16.62,18.574,0c-8.156,43.47-16.422,87.84-10.875,131.98c6.231,50.77,14.5,103.91,33.414,151.87
			c5.66,14.27,11.809,28.24,19.367,41c14.934,25.19,18.461,16.62,21.973,7.97c23.559-57.96,38.961-119.06,32.617-181.96
			c-0.109-0.12-0.109-0.23-0.109-0.34c-6.574-32.02-13.141-64.03-21.41-95.71c-4.754-18.08-10.985-35.16-17.442-52.68
			c-12.687-34.59-12.121-53.91-5.55-84.58c2.156-9.88-8.832-18.08-17.891-12.46c-8.727,5.39-14.844,15.16-21.184,24.37
			c-23.215,33.36-111.789,73.35-148.257,90.54c-81.208,37.96-152.45,100.08-173.743,189.94
			C397.262,1611.54,387.411,1644.56,378.126,1678.03z M444.774,1379.3c-6.039,13.64,2.711,17.39,9.176,11.68
			c27.863-43.58,90.609-69.19,135.687-90.08c81.098-37.75,151.883-80.09,224.371-132.1c19.254-13.82,35.903-30.1,54.137-45.04
			c20.274-16.63,35.567-27.75,58.672-34.6c6-1.8,12.231,2.69,11.551,8.88c-1.36,12.01-7.477,19.99-15.289,32.35
			c-20.5,32.23-33.641,67.05-47.004,102.66c-22.992,61.44-37.715,118.73-44.625,184.1c-0.227,2.02-3.059,17.97-2.832,31.57
			c0.226,10.44,14.043,10.22,18.461,2.47c14.383-25.05,31.597-44.82,52.328-64.93c20.16-19.54,32.051-38.07,42.586-64.13
			c21.515-53.02,41.793-106.83,61.042-160.74c12.24-34.04,14.61-34.38,37.38-118.96c2.15-8.08,2.95-20.78-8.27-21.34
			c-21.86-1.12-42.242,7.42-62.972,13.03c-121.75,33.25-245.321,69.42-354.731,133.67
			C533.231,1215.75,487.477,1302.13,444.774,1379.3z M697.059,1000.592c-6.344,6.518-25.304,34.708-4.574,32.348
			c18.348-2.02,37.082-15.18,47.5-21.25c33.188-19.207,80.867-27.609,119.262-31.543c84.718-8.762,163.998-40.102,246.908-61.555
			c29.11-7.414,55.28-10.785,85.4-10.449c28.88,0.34,41.23,4.047,16.42,32.801c-34.77,40.551-64.9,85.376-95.36,129.066
			c-28.77,41.11-61.16,82.89-81.1,129.4c-2.49,5.84-8.72,23.03-9.85,36.28c-0.91,10.11,12,11.01,18.23,5.39
			c41.8-37.74,87.67-70.32,135.24-100.42c50.51-31.9,87.43-69.75,111.56-124.79c16.31-37.407,33.75-71.555,62.86-100.985
			c20.16-20.332,38.17-30.777,59.8-42.683c5.78-3.149,7.7-13.481-0.91-13.817c-39.07-1.347-77.01-9.433-115.75-14.379
			c-46.66-5.953-92.08-9.886-139.08-9.886c-114.29,0-221.88,21.343-324.493,70.769
			C788.344,924.545,728.883,967.905,697.059,1000.592L697.059,1000.592z M3045.445,751.194c-35-29.652-162.76-57.285-189.49-60.32
			c-112.69-12.914-226.75-21.789-339.44-6.516c-69.77,9.551-136.25,30.555-202.51,53.582c-83.36,28.867-157.66,25.723-243.85,8.199
			c-1.02-0.222-21.29-4.265-32.05-6.738c-1.82-0.449-2.16-2.918-0.35-3.484l20.96-6.961c32.96-10.786,65.47-22.016,96.38-37.633
			c41.69-20.891,83.02-41.785,123.34-65.035c21.19-12.246,41.57-23.926,63.77-34.149c2.72-1.347,62.52-25.609,34.89-30.215
			c-28.66-4.714-57.65-8.086-86.76-9.324c-11.56,23.93-39.42,37.067-60.37,51.11c-48.82,32.914-91.97,62.003-144.98,87.613
			c-17.32,8.426-60.36,29.656-91.51,34.824c-31.15-5.168-74.3-26.398-91.63-34.824c-53-25.61-96.16-54.699-144.97-87.613
			c-20.95-14.043-48.82-27.18-60.37-51.11c-29.11,1.238-58.1,4.61-86.76,9.324c-27.63,4.606,32.17,28.868,34.88,30.215
			c22.2,10.223,42.59,21.903,63.77,34.149c40.32,23.25,81.66,44.144,123.34,65.035c30.93,15.617,65.47,25.722,98.43,36.508
			l20.95,6.964c1.81,0.563,1.48,3.036-0.34,3.481c-10.76,2.473-31.03,6.516-32.05,6.742c-86.19,17.524-162.53,21.789-245.89-7.078
			c-66.26-23.027-132.74-44.031-202.51-53.582c-112.7-15.273-226.75-6.398-339.45,6.516c-26.73,3.035-154.484,30.668-189.484,60.32
			c-23.101,19.094,13.254,22.691,21.297,22.019c54.817-4.496,109.637-5.957,164.677-1.8c140,11.121,279.76,26.621,419.41,40.886
			c100.46,10.336,202.05,3.821,300.48-18.418c42.93-9.773,84.84-21.57,126.51-36.171c7.02-2.582,13.82-4.047,19.6-4.606
			c5.77,0.559,12.68,2.024,19.71,4.606c41.68,14.601,83.58,26.398,126.51,36.171c98.42,22.239,200.02,28.754,300.48,18.418
			c139.65-14.265,279.42-29.765,419.4-40.886c55.05-4.157,109.87-2.696,164.68,1.8
			C3032.195,773.885,3068.544,770.288,3045.445,751.194L3045.445,751.194z M3289.605,1000.592
			c-31.82-32.687-91.28-76.047-132.06-95.703c-102.61-49.426-210.21-70.769-324.49-70.769c-47.01,0-92.43,3.933-139.09,9.886
			c-38.73,4.946-76.68,13.032-115.75,14.379c-8.61,0.336-6.68,10.668-0.91,13.817c21.64,11.906,39.64,22.351,59.81,42.683
			c29.1,29.43,46.55,63.578,62.85,100.985c24.13,55.04,61.05,92.89,111.57,124.79c47.56,30.1,93.44,62.68,135.23,100.42
			c6.23,5.62,19.14,4.72,18.24-5.39c-1.14-13.25-7.37-30.44-9.86-36.28c-19.93-46.51-52.32-88.29-81.09-129.4
			c-30.47-43.69-60.6-88.515-95.37-129.066c-24.8-28.754-12.46-32.461,16.43-32.801c30.12-0.336,56.28,3.035,85.39,10.449
			c82.91,21.453,162.19,52.793,246.91,61.555c38.4,3.934,74.38,12.336,107.57,31.543c10.42,6.07,36.65,19.23,55,21.25
			C3310.715,1035.3,3295.945,1007.11,3289.605,1000.592L3289.605,1000.592z M3541.885,1379.3
			c-42.7-77.17-88.45-163.55-169.66-211.51c-109.41-64.25-232.98-100.42-354.74-133.67c-20.72-5.61-41.11-14.15-62.97-13.03
			c-11.21,0.56-10.42,13.26-8.27,21.34c22.77,84.58,25.15,84.92,37.38,118.96c19.25,53.91,39.53,107.72,61.05,160.74
			c10.53,26.06,22.42,44.59,42.58,64.13c20.73,20.11,37.94,39.88,52.33,64.93c4.42,7.75,18.24,7.97,18.46-2.47
			c0.23-13.6-2.6-29.55-2.83-31.57c-6.91-65.37-21.63-122.66-44.62-184.1c-13.37-35.61-26.51-70.43-47.01-102.66
			c-7.81-12.36-13.93-20.34-15.29-32.35c-0.68-6.19,5.55-10.68,11.55-8.88c23.11,6.85,38.4,17.97,58.68,34.6
			c18.23,14.94,34.88,31.22,54.13,45.04c72.49,52.01,143.28,94.35,224.37,132.1c45.08,20.89,107.83,46.5,135.69,90.08
			C3537.465,1390.53,3544.985,1392.94,3541.885,1379.3L3541.885,1379.3z M3608.535,1678.03c-9.28-33.47-19.13-66.49-27.18-100.19
			c-21.29-89.86-92.53-151.98-173.74-189.94c-36.47-17.19-125.04-57.18-148.26-90.54c-6.34-9.21-12.46-18.98-21.18-24.37
			c-9.06-5.62-20.05,2.58-17.89,12.46c6.57,30.67,7.13,49.99-5.55,84.58c-6.46,17.52-12.69,34.6-17.45,52.68
			c-8.26,31.68-14.83,63.69-21.4,95.71c0,0.11,0,0.22-0.11,0.34c-6.35,62.9,9.06,124,32.62,181.96c3.51,8.65,17.66,10.68,19.59,0
			c0.45-2.47,1.25-5.05,2.38-7.97c5.66-13.7,13.7-26.73,19.37-41c18.91-47.96,27.18-101.1,33.41-151.87
			c5.55-44.14-2.72-88.51-10.87-131.98c-5.1-16.62,14.49-7.08,18.57,0c24.01,41.67,50.51,85.93,90.84,113.9
			c61.84,42.91,112.46,102.89,167.62,153.89c17.45,16.06,32.62,33.13,46.66,52.12
			C3607.865,1704.43,3610.585,1685.22,3608.535,1678.03L3608.535,1678.03z M3608.215,1915.12c-3.63-47.97-14.84-95.03-25.71-141.87
			c-10.2-44.15-43.83-108.4-81.78-136.48c-49.38-36.73-104.99-61.44-143.04-111.42c-4.76-6.18-15.86-4.5-15.97,3.93
			c-0.34,17.86-9.63,44.48-20.96,67.84c-20.5,41.79-49.95,80.99-70.11,121.87c-21.97,44.6-41.9,99.86-48.81,149.18
			c-2.61,19.09-5.78,39.42-7.14,58.85c-0.33,4.27,5.44,6.41,7.82,2.59c7.93-12.81,14.95-26.29,23.67-38.64
			c34.43-49.32,79.28-84.81,107.26-138.95c23.44-45.38,28.09-93.01,42.92-141.2c31.26,55.27,51.65,113.9,79.74,170.4
			c14.95,30.22,31.71,56.73,53.8,82.11c18.01,20.56,32.85,44.15,49.04,66.05c12.34,16.96,15.97,23.93,24.81,43.02
			c6.79,14.49,13.02,5.73,19.25-4.94C3613.875,1948.82,3609.915,1937.92,3608.215,1915.12"/>
	</g>
</g>
</svg>
