<?xml version="1.0" encoding="utf-8"?>
<!-- Generator: Adobe Illustrator 18.1.1, SVG Export Plug-In . SVG Version: 6.00 Build 0)  -->
<svg version="1.0" id="Layer_1" xmlns="http://www.w3.org/2000/svg" xmlns:xlink="http://www.w3.org/1999/xlink" x="0px" y="0px"
	 width="586.8px" height="229.32px" viewBox="0 0 586.8 229.32" enable-background="new 0 0 586.8 229.32" xml:space="preserve">
<g id="g10_1_" transform="matrix(1.25,0,0,-1.25,0,231.25)">
	<g id="g12_1_" transform="scale(0.1,0.1)">
		<path id="path14_1_" fill="#070607" d="M2347.999,1850C1150.279,1850,0,1501.46,0,932.415
			C0,363.376,1147.269,15.439,2344.989,15.439s2349.41,347.937,2349.41,916.976C4694.399,1501.46,3545.729,1850,2347.999,1850
			L2347.999,1850z M4525.069,887.134c0-70.551-53.48-117.785-111.77-128.039c-5.03-144.918-118.4-248.441-276.21-248.441
			c-14.07,0-28.55,0.605-43.43,2.617c-20.3-70.957-85.43-121.406-188.96-158.996c-395.42-143.715-948.85-230.75-1557.57-230.75
			c-608.7,0-1162.54,87.035-1557.961,230.75c-103.528,37.59-168.66,88.039-188.965,158.996c-14.875-2.012-29.348-2.617-43.418-2.617
			c-157.813,0-271.191,103.523-276.215,248.441c-58.297,10.254-111.769,57.488-111.769,128.039c0,15.481,3.214,30.758,9.242,45.027
			c-6.028,14.27-9.242,29.547-9.242,45.024c0,70.555,53.472,117.785,111.769,128.035c5.024,144.93,118.402,248.45,276.215,248.45
			c14.07,0,28.543-0.61,43.418-2.61c20.305,70.95,85.437,121.4,188.965,158.98c395.421,143.73,949.261,230.76,1557.961,230.76
			c608.72,0,1162.15-87.03,1557.57-230.76c103.53-37.58,168.66-88.03,188.96-158.98c14.88,2,29.36,2.61,43.43,2.61
			c157.81,0,271.18-103.52,276.21-248.45c58.29-10.25,111.77-57.48,111.77-128.035c0-15.477-3.21-30.754-9.24-45.024
			C4521.859,917.892,4525.069,902.615,4525.069,887.134"/>
		<path id="path16_1_" fill="#070607" d="M4464.759,977.185c0,40.605-35.38,69.745-74.78,69.745c-15.88,0-31.96-4.82-46.03-11.66
			c6.02,18.9,9.24,39,9.24,59.7c0,113.57-84.43,198.39-216.1,198.39c-32.77,0-65.94-4.42-102.12-20.9
			c3.01,9.05,5.02,18.69,5.02,28.74c0,59.3-37.79,109.35-155.79,152.16c-387.18,140.7-933.18,227.13-1537.07,227.13
			c-603.88,0-1150.27-86.43-1537.453-227.13c-118-42.81-155.797-92.86-155.797-152.16c0-10.05,2.011-19.69,5.027-28.74
			c-36.187,16.48-69.355,20.9-102.121,20.9c-131.676,0-216.106-84.82-216.106-198.39c0-20.7,3.215-40.8,9.247-59.7
			c-14.071,6.84-30.157,11.66-46.036,11.66c-39.402,0-74.781-29.14-74.781-69.745c0-17.684,9.043-35.176,23.52-45.024
			c-14.477-9.851-23.52-27.336-23.52-45.027c0-40.598,35.379-69.742,74.781-69.742c15.879,0,31.965,4.816,46.036,11.652
			c-6.032-18.894-9.247-38.992-9.247-59.695c0-113.57,84.43-198.391,216.106-198.391c32.766,0,65.934,4.422,102.121,20.903
			c-3.016-9.047-5.027-18.692-5.027-28.743c0-59.296,37.797-109.347,155.797-152.16
			C1196.86,270.255,1743.25,183.825,2347.13,183.825c603.89,0,1149.89,86.43,1537.07,227.133
			c118,42.813,155.79,92.864,155.79,152.16c0,10.051-2.01,19.696-5.02,28.743c36.18-16.481,69.35-20.903,102.12-20.903
			c131.67,0,216.1,84.821,216.1,198.391c0,20.703-3.22,40.801-9.24,59.695c14.07-6.836,30.15-11.652,46.03-11.652
			c39.4,0,74.78,29.144,74.78,69.742c0,17.691-9.04,35.176-23.52,45.027C4455.719,942.009,4464.759,959.501,4464.759,977.185z
			 M304.773,851.857c-20.504,0-42.418,14.269-42.418,36.179c0,12.059,10.254,18.688,17.688,18.688
			c2.617,0,10.656,0.805,10.656-8.844c0-1.004-0.199-2.012-0.805-2.808c-4.621-8.247-2.011-18.899,6.434-23.723
			c14.07-7.84,28.547,8.644,28.547,26.332c0,13.668-6.231,26.734-17.492,34.773c11.261,8.039,17.492,21.106,17.492,34.778
			c0,17.683-14.477,34.168-28.547,26.328c-8.445-4.824-11.055-15.477-6.434-23.719c0.606-0.801,0.805-1.805,0.805-2.812
			c0-9.649-8.039-8.844-10.656-8.844c-7.434,0-17.688,6.629-17.688,18.691c0,21.91,21.914,36.184,42.418,36.184
			c38.395,0,68.352-30.555,97.903-54.07c11.054-8.645,23.519-15.68,36.785-21.11c3.82-1.605,8.043-3.015,12.261-4.219
			c1.207-0.402,1.207-2.011,0-2.41c-4.218-1.207-8.441-2.617-12.261-4.222c-13.266-5.43-25.731-12.465-36.785-21.102
			C373.125,882.404,343.168,851.857,304.773,851.857L304.773,851.857z M4136.839,605.099c-61.12,0-122.03,21.105-160.43,68.34
			c-10.45,12.867-19.69,27.941-19.69,45.027c0,15.274,11.25,28.34,26.33,31.356c12.67,2.613,26.13-5.426,26.13-19.098
			c0-1.203-0.2-2.609-1-4.617c-2.01-5.231-6.03-6.836-7.24-6.836c-1.81,0-3.22,1.406-4.02,3.015c-3.22,6.231-9.65,9.848-15.88,9.848
			c-9.65,0-17.09-9.043-17.09-17.289c0-18.09,20.71-29.746,36.79-29.746c28.95,0,45.64,28.141,42.01,52.262
			c-4.01,27.738-30.35,47.234-55.68,47.234c-35.38,0.199-63.92-27.941-66.34-62.109c-1.6-24.121,6.63-47.84,26.34-68.946
			c29.15-30.953,58.7-61.105,58.7-91.054c0-38.996-20.11-78.192-135.7-120.602c-376.53-138.09-920.71-223.918-1522.98-223.918
			c-602.28,0-1146.87,85.828-1523.394,223.918c-115.59,42.41-135.691,81.606-135.691,120.602c0,29.949,29.55,60.101,58.699,91.054
			c19.703,21.106,27.941,44.825,26.336,68.946c-2.414,34.168-30.961,62.308-66.34,62.109c-25.328,0-51.664-19.496-55.684-47.234
			c-3.621-24.121,13.063-52.262,42.012-52.262c16.082,0,36.793,11.656,36.793,29.746c0,8.246-7.441,17.289-17.09,17.289
			c-6.23,0-12.668-3.617-15.883-9.848c-0.804-1.609-2.207-3.015-4.019-3.015c-1.207,0-5.231,1.605-7.238,6.836
			c-0.805,2.008-1.004,3.414-1.004,4.617c0,13.672,13.468,21.711,26.133,19.098c15.074-3.016,26.335-16.082,26.335-31.356
			c0-17.086-9.25-32.16-19.699-45.027c-38.402-47.235-99.312-68.34-160.422-68.34c-114.988,0-182.132,71.355-182.132,164.019
			c0,66.532,37.992,122.614,105.742,133.469c18.695,3.012,37.992,1.403,56.086-4.023c39-11.86,70.16-41.809,73.175-84.625
			c2.61-30.75-5.23-57.887-34.582-73.563c-14.269-7.64-31.152-8.043-46.433-3.215c-20.305,6.43-36.789,24.321-34.176,46.43
			c2.012,17.285,13.672,28.539,24.125,28.539c3.414,0,7.84,1.211,9.445-2.609c2.817-6.836,9.45-10.457,15.887-10.457
			c9.445,0,17.082,7.64,17.082,17.09c0,5.027-2.406,9.445-5.223,13.464c-8.445,12.063-23.121,16.688-37.394,16.688
			c-33.973,0-54.676-31.359-58.098-58.695c-4.824-38.391,21.91-71.555,57.696-82.817c24.125-7.633,50.461-6.629,72.976,5.43
			c46.235,24.723,55.481,67.535,52.871,106.133c-0.406,5.222-1.008,10.25-2.011,15.074c8.441-4.426,17.691-8.039,27.339-10.656
			c35.18-9.446,77.797,1.207,95.485,43.215c3.222,7.839,4.426,15.679,4.426,23.117c0,17.687-9.043,35.172-23.52,45.023
			c14.477,9.852,23.52,27.34,23.52,45.024c0,7.441-1.204,15.281-4.426,23.117c-17.688,42.009-60.305,52.659-95.485,43.219
			c-9.648-2.61-18.898-6.23-27.339-10.65c1.003,4.82,1.605,9.84,2.011,15.07c2.61,38.59-6.636,81.4-52.871,106.13
			c-22.515,12.06-48.851,13.07-72.976,5.43c-35.786-11.26-62.52-44.43-57.696-82.82c3.422-27.34,24.125-58.69,58.098-58.69
			c14.273,0,28.949,4.63,37.394,16.69c2.817,4.02,5.223,8.44,5.223,13.46c0,9.45-7.637,17.09-17.082,17.09
			c-6.437,0-13.07-3.62-15.887-10.45c-1.605-3.82-6.031-2.62-9.445-2.62c-10.453,0-22.113,11.25-24.125,28.55
			c-2.613,22.11,13.871,40,34.176,46.43c15.281,4.82,32.164,4.41,46.433-3.22c29.352-15.68,37.192-42.81,34.582-73.57
			c-3.015-42.811-34.175-72.76-73.175-84.62c-18.094-5.429-37.391-7.035-56.086-4.019c-67.75,10.855-105.742,66.929-105.742,133.469
			c0,92.66,67.144,164.02,182.132,164.02c61.11,0,122.02-21.11,160.422-68.34c10.449-12.87,19.699-27.95,19.699-45.03
			c0-15.28-11.261-28.35-26.335-31.36c-12.665-2.61-26.133,5.43-26.133,19.1c0,1.21,0.199,2.61,1.004,4.62
			c2.007,5.22,6.031,6.83,7.238,6.83c1.812,0,3.215-1.41,4.019-3.01c3.215-6.23,9.653-9.85,15.883-9.85
			c9.649,0,17.09,9.05,17.09,17.29c0,18.09-20.711,29.75-36.793,29.75c-28.949,0-45.633-28.15-42.012-52.27
			c4.02-27.73,30.356-47.23,55.684-47.23c35.379-0.2,63.926,27.94,66.34,62.11c1.605,24.12-6.633,47.83-26.336,68.94
			c-29.149,30.96-58.699,61.11-58.699,91.05c0,39,20.101,78.2,135.691,120.61c376.524,138.09,921.114,223.91,1523.394,223.91
			c602.27,0,1146.45-85.82,1522.98-223.91c115.59-42.41,135.7-81.61,135.7-120.61c0-29.94-29.55-60.09-58.7-91.05
			c-19.71-21.11-27.94-44.82-26.34-68.94c2.42-34.17,30.96-62.31,66.34-62.11c25.33,0,51.67,19.5,55.68,47.23
			c3.63,24.12-13.06,52.27-42.01,52.27c-16.08,0-36.79-11.66-36.79-29.75c0-8.24,7.44-17.29,17.09-17.29
			c6.23,0,12.66,3.62,15.88,9.85c0.8,1.6,2.21,3.01,4.02,3.01c1.21,0,5.23-1.61,7.24-6.83c0.8-2.01,1-3.41,1-4.62
			c0-13.67-13.46-21.71-26.13-19.1c-15.08,3.01-26.33,16.08-26.33,31.36c0,17.08,9.24,32.16,19.69,45.03
			c38.4,47.23,99.31,68.34,160.43,68.34c114.99,0,182.13-71.36,182.13-164.02c0-66.54-38-122.614-105.75-133.469
			c-18.69-3.016-37.99-1.41-56.08,4.019c-39,11.86-70.16,41.809-73.17,84.62c-2.62,30.76,5.22,57.89,34.57,73.57
			c14.27,7.63,31.16,8.04,46.44,3.22c20.31-6.43,36.79-24.32,34.18-46.43c-2.01-17.3-13.67-28.55-24.13-28.55
			c-3.42,0-7.84-1.2-9.44,2.62c-2.82,6.83-9.46,10.45-15.89,10.45c-9.45,0-17.09-7.64-17.09-17.09c0-5.02,2.41-9.44,5.23-13.46
			c8.45-12.06,23.12-16.69,37.39-16.69c33.97,0,54.68,31.35,58.1,58.69c4.83,38.39-21.92,71.56-57.7,82.82
			c-24.12,7.64-50.45,6.63-72.97-5.43c-46.23-24.73-55.48-67.54-52.87-106.13c0.41-5.23,1-10.25,2.01-15.07
			c-8.44,4.42-17.69,8.04-27.34,10.65c-35.18,9.44-77.8-1.21-95.49-43.219c-3.22-7.836-4.42-15.676-4.42-23.117
			c0-17.684,9.04-35.172,23.52-45.024c-14.48-9.851-23.52-27.336-23.52-45.023c0-7.438,1.2-15.278,4.42-23.117
			c17.69-42.008,60.31-52.661,95.49-43.215c9.65,2.617,18.9,6.23,27.34,10.656c-1.01-4.824-1.6-9.852-2.01-15.074
			c-2.61-38.598,6.64-81.41,52.87-106.133c22.52-12.059,48.85-13.063,72.97-5.43c35.78,11.262,62.53,44.426,57.7,82.817
			c-3.42,27.336-24.13,58.695-58.1,58.695c-14.27,0-28.94-4.625-37.39-16.688c-2.82-4.019-5.23-8.437-5.23-13.464
			c0-9.45,7.64-17.09,17.09-17.09c6.43,0,13.07,3.621,15.89,10.457c1.6,3.82,6.02,2.609,9.44,2.609
			c10.46,0,22.12-11.254,24.13-28.539c2.61-22.109-13.87-40-34.18-46.43c-15.28-4.828-32.17-4.425-46.44,3.215
			c-29.35,15.676-37.19,42.813-34.57,73.563c3.01,42.816,34.17,72.765,73.17,84.625c18.09,5.426,37.39,7.035,56.08,4.023
			c67.75-10.855,105.75-66.937,105.75-133.469C4318.97,676.454,4251.83,605.099,4136.839,605.099L4136.839,605.099z
			 M702.293,993.486c-14.071,7.64-28.543-8.243-28.543-26.332c0-13.668,6.23-26.735,17.488-34.774
			c-11.258-8.039-17.488-21.105-17.488-34.773c0-18.09,14.472-33.973,28.543-26.332c8.445,4.824,11.054,15.476,6.437,23.718
			c-0.605,0.801-0.804,1.805-0.804,2.813c0,9.648,10.046,8.844,12.664,8.844c9.246,0,19.699-14.071,12.664-29.145
			c-9.45-23.515-33.575-29.949-54.879-23.922c-29.555,8.446-54.879,30.758-82.426,52.262c-14.27,11.262-30.953,19.699-48.645,25.129
			c-1.21,0.402-1.609,2.211-0.207,2.609c17.899,5.434,34.582,14.071,48.852,25.328c27.547,21.508,52.871,43.821,82.426,52.269
			c21.304,6.02,45.429-0.41,54.879-23.925c7.035-15.074-3.418-29.144-12.664-29.144c-2.618,0-12.664-0.805-12.664,8.843
			c0,1.004,0.199,2.012,0.804,2.813C713.347,978.009,710.738,988.661,702.293,993.486z M3991.829,871.275
			c14.07-7.641,28.55,8.242,28.55,26.332c0,13.668-6.23,26.734-17.5,34.773c11.27,8.039,17.5,21.106,17.5,34.774
			c0,18.089-14.48,33.972-28.55,26.332c-8.45-4.825-11.06-15.477-6.43-23.719c0.6-0.801,0.8-1.809,0.8-2.813
			c0-9.648-10.05-8.843-12.66-8.843c-9.25,0-19.7,14.07-12.67,29.144c9.45,23.515,33.58,29.945,54.88,23.925
			c29.56-8.448,54.88-30.761,82.43-52.269c14.27-11.257,30.95-19.894,48.84-25.328c1.41-0.398,1.01-2.207-0.2-2.609
			c-17.69-5.43-34.37-13.867-48.64-25.129c-27.55-21.504-52.87-43.816-82.43-52.262c-21.3-6.027-45.43,0.407-54.88,23.922
			c-7.03,15.074,3.42,29.145,12.67,29.145c2.61,0,12.66,0.804,12.66-8.844c0-1.008-0.2-2.012-0.8-2.813
			C3980.769,886.751,3983.379,876.099,3991.829,871.275L3991.829,871.275z M4397.789,993.56c-14.07,7.84-28.54-8.645-28.54-26.328
			c0-13.672,6.23-26.739,17.49-34.778c-11.26-8.039-17.49-21.105-17.49-34.773c0-17.688,14.47-34.172,28.54-26.332
			c8.45,4.824,11.06,15.476,6.44,23.723c-0.6,0.796-0.8,1.804-0.8,2.808c0,9.649,8.04,8.844,10.65,8.844
			c7.44,0,17.69-6.629,17.69-18.688c0-21.91-21.91-36.179-42.42-36.179c-38.4,0-68.35,30.547-97.9,54.07
			c-11.05,8.637-23.52,15.672-36.79,21.102c-3.82,1.605-8.04,3.015-12.26,4.222c-1.2,0.399-1.2,2.008,0,2.41
			c4.22,1.204,8.44,2.614,12.26,4.219c13.27,5.43,25.74,12.465,36.79,21.11c29.55,23.515,59.5,54.07,97.9,54.07
			c20.51,0,42.42-14.274,42.42-36.184c0-12.062-10.25-18.691-17.69-18.691c-2.61,0-10.65-0.805-10.65,8.844
			c0,1.007,0.2,2.011,0.8,2.812C4408.849,978.083,4406.239,988.736,4397.789,993.56"/>
	</g>
</g>
</svg>
