<?xml version="1.0" encoding="utf-8"?>
<!-- Generator: Adobe Illustrator 18.1.1, SVG Export Plug-In . SVG Version: 6.00 Build 0)  -->
<svg version="1.0" id="Layer_1" xmlns="http://www.w3.org/2000/svg" xmlns:xlink="http://www.w3.org/1999/xlink" x="0px" y="0px"
	 width="571.482px" height="757.534px" viewBox="0 0 571.482 757.534" enable-background="new 0 0 571.482 757.534"
	 xml:space="preserve">
<g id="g10_3_" transform="matrix(1.25,0,0,-1.25,0,758.75)">
	<g id="g12_3_" transform="scale(0.1,0.1)">
		<path id="path14_3_" fill="#070607" d="M4504.296,729.676h-198.12v4139.239h188.18c66.38,0,67.56,94.85,67.56,107.82
			c0,13.71-1.01,103.02-67.56,103.02h-188.18v37.79c0,31.86-22.58,67.43-63.69,70.77c-314.2,24.45-619.13,256.04-760.49,363.86
			c-4.04,3.34-8.08,6.3-11.96,9.27c-23.75,18.15-47.67,36.68-72.1,55.58c-164.94,129.31-357.67,282.34-583.76,282.34
			c-41.62,0-84.24-5.18-127.87-16.3c-91.99-23.71-147.75-108.19-149.61-201.57v-4.45c0-104.86,80.7-207.13,201.83-208.24h2.03
			c25.94,0,50.37,3.71,72.94,10.38c5.06-14.45,7.25-29.27,7.25-43.36c0-80.77-73.96-153.4-149.77-154.5h-4.21
			c-87.28,0-148.09,35.93-174.71,77.44c11.12,13.7,16.84,31.12,16.84,47.79c0,24.46-12.8,51.51-37.9,65.22
			c1.01,4.81,1.52,9.63,1.52,15.19c0,31.5-22.92,62.62-33.87,78.92c-21.73,31.87-38.75,58.92-38.75,90.79
			c0,10,1.85,21.49,6.74,34.45c26.96,71.15,39.42,128.58,39.42,176.38c0,122.64-82.55,164.14-141.34,195.27
			c-1.35,0.74-2.7,1.48-4.05,2.23c-12.3,6.66-27.12,6.66-39.42,0c-1.18-0.75-2.53-1.49-3.87-1.86
			c-58.8-31.13-141.19-73-141.19-195.64c0-47.43,12.47-105.23,39.43-176.38c4.88-12.96,6.74-24.45,6.74-34.45
			c0-31.87-17.02-58.92-38.75-90.79c-10.95-16.3-33.87-47.42-33.87-78.92c0-5.56,0.51-10.38,1.52-15.19
			c-25.1-13.71-37.91-40.76-37.91-65.22c0-16.67,5.73-34.09,16.85-47.79c-26.62-41.51-87.44-77.44-174.71-77.44h-4.21
			c-75.81,1.1-149.77,73.73-149.77,154.5c0,14.09,2.19,28.91,7.24,43.36c22.58-6.67,47.01-10.38,72.95-10.38h2.02
			c121.14,1.11,201.84,103.38,201.84,208.24v4.45c-1.86,93.38-57.62,177.86-149.61,201.57c-43.63,11.12-86.26,16.3-127.87,16.3
			c-226.09,0-418.83-153.03-583.76-282.34c-24.43-18.9-48.35-37.43-72.1-55.58c-3.88-2.97-7.93-5.93-11.97-9.27
			c-141.347-107.82-446.285-339.41-760.484-363.86c-41.109-3.34-63.684-38.91-63.684-70.77v-37.79H67.559
			c-66.551,0-67.559-89.31-67.559-103.02c0-12.97,1.18-107.82,67.559-107.82h188.519V729.676H77.496
			c-66.547,0-67.559-89.301-67.559-103.008c0-12.973,1.18-107.828,67.559-107.828h178.582v-7.41
			c0-289.387,146.235-501.703,522.098-501.703c164.766,0,373,40.758,632.28,130.058c146.24,50.391,274.27,70.028,385.47,70.028
			c208.06,0,360.02-69.29,462.79-141.543c14.49-10.375,33.86-10.375,48.35,0c102.94,72.254,253.22,141.543,460.27,141.543
			c110.52,0,238.22-19.637,384.46-70.028c259.28-89.301,467.51-130.058,632.28-130.058c375.86,0,522.1,212.316,522.1,501.703v7.41
			h198.12c66.38,0,67.56,94.855,67.56,107.828C4571.856,640.375,4570.846,729.676,4504.296,729.676L4504.296,729.676z
			 M2195.066,5705.975c-84.75,235.52,0,276.46,85.89,321.78c85.9-45.32,171.01-86.26,86.26-321.78
			c-54.72-132.59,124.51-203.85,39.62-250.35h-251.4C2070.546,5502.125,2249.776,5573.385,2195.066,5705.975z M2127.136,5438.095
			h307.97c42.29,0,42.29-63.34,0-63.34h-307.97C2084.856,5374.755,2084.856,5438.095,2127.136,5438.095z M298.196,5117.495
			c0,14.32,9.941,27.63,24.765,28.81c338.633,26.45,662.27,280.68,794.855,381.59c218.51,166.62,456.06,389.68,747.52,314.37
			c70.76-18.36,116.58-83.73,118.1-161.73c1.85-86.43-63.85-168.81-160.05-169.49c-35.38-0.33-67.56,7.75-96.03,20.89
			c-83.57-135.95,34.37-290.95,163.25-292.63c111.36-1.69,196.77,49.53,226.26,117.42h328.52
			c29.48-67.89,114.9-119.11,226.26-117.42c128.88,1.68,246.81,156.68,163.25,292.63c-28.47-13.14-60.65-21.22-96.03-20.89
			c-96.2,0.68-161.9,83.06-160.05,169.49c1.52,78,47.34,143.37,118.1,161.73c291.46,75.31,529.01-147.75,747.52-314.37
			c132.58-100.91,456.22-355.14,794.85-381.59c14.83-1.18,24.77-14.49,24.77-28.81v-58.12H298.196L298.196,5117.495
			L298.196,5117.495z M67.559,4911.115c-28.027,15.5-27.332,103.44,0,126.36h4426.827c27.33-22.92,28.02-110.86,0-126.36
			C4494.386,4911.115,67.559,4911.115,67.559,4911.115z M4264.056,4882.305V713.777H298.196v4168.528H4264.056z M4264.056,511.477
			c0-390.379-274.04-616.196-1098.54-332.02c-431.89,148.793-716.04,40.484-882.61-76.762
			c-166.56,117.246-454.28,225.555-886.17,76.762c-824.497-284.176-1098.54-58.359-1098.54,332.02v14.722h3965.86
			C4264.056,526.199,4264.056,511.477,4264.056,511.477z M4504.326,561.141H77.496c-28.023,15.5-27.332,103.441,0,126.351h4426.83
			C4531.656,664.582,4532.355,576.641,4504.326,561.141"/>
		<path id="path16" fill="#070607" d="M4095.576,882.25v3831.585H466.668V882.25H4095.576z M525.633,4654.865h3510.983V941.215
			H525.633L525.633,4654.865"/>
	</g>
</g>
</svg>
