<?xml version="1.0" encoding="utf-8"?>
<!-- Generator: Adobe Illustrator 18.1.1, SVG Export Plug-In . SVG Version: 6.00 Build 0)  -->
<svg version="1.0" id="Layer_1" xmlns="http://www.w3.org/2000/svg" xmlns:xlink="http://www.w3.org/1999/xlink" x="0px" y="0px"
	 width="685.133px" height="145.977px" viewBox="0 0 685.133 145.977" enable-background="new 0 0 685.133 145.977"
	 xml:space="preserve">
<g id="g10_4_" transform="matrix(1.25,0,0,-1.25,0,147.5)">
	<g id="g12_4_" transform="scale(0.1,0.1)">
		<path id="path14_4_" fill="#070607" d="M5187.734,957.949v98.141L5084.664,1180H395.852l-102.528-123.91v-97.594L0,597.188
			l293.324-362.957V136.09L395.852,12.184h4689.361l102.52,123.906v97.594l293.33,361.308L5187.734,957.949L5187.734,957.949z
			 M5078.084,272.578v-97.043l-44.96-53.73H447.395l-44.41,53.73v97.043L140.91,596.606l262.075,322.929v97.045l44.41,53.73
			h4585.729l44.96-53.73v-97.045l261.53-324.574L5078.084,272.578"/>
	</g>
</g>
</svg>
