<?xml version="1.0" encoding="utf-8"?>
<!-- Generator: Adobe Illustrator 18.1.1, SVG Export Plug-In . SVG Version: 6.00 Build 0)  -->
<svg version="1.0" id="Layer_1" xmlns="http://www.w3.org/2000/svg" xmlns:xlink="http://www.w3.org/1999/xlink" x="0px" y="0px"
	 width="646.625px" height="429.557px" viewBox="0 0 646.625 429.557" enable-background="new 0 0 646.625 429.557"
	 xml:space="preserve">
<g id="g10_3_" transform="matrix(1.25,0,0,-1.25,0,431.25)">
	<g id="g12_3_" transform="scale(0.1,0.1)">
		<path id="path14_3_" fill="#070607" d="M4767.952,2677.25h-552.99c-391.41,471.12-972.41,772.75-1628.1,772.75
			s-1237.41-301.63-1628.818-772.75H405.052c-73.254-96.23-211.859-198.93-405.051-188.88V975.18
			c193.192,10.054,331.797-92.641,405.051-188.879h552.992C1349.452,315.18,1931.172,13.546,2586.862,13.546
			s1236.69,301.633,1628.1,772.754h552.99c73.26,96.238,211.87,198.933,405.05,188.879v1513.19
			C4979.821,2478.32,4841.211,2581.02,4767.952,2677.25L4767.952,2677.25z M5029.642,1108.12
			c-137.43-26.63-249.95-100.78-326.68-178.659h-554.3c-347.3-457.383-927.37-772.758-1561.83-772.758
			c-634.47,0-1215.4,315.375-1562.69,772.758H469.841c-76.73,77.879-189.254,152.029-326.683,178.659v1247.17
			c137.429,26.63,249.953,100.78,326.683,178.66h554.301c347.29,457.38,928.22,772.76,1562.69,772.76
			c634.46,0,1214.53-315.38,1561.83-772.76h554.3c76.73-77.88,189.25-152.03,326.68-178.66V1108.12"/>
	</g>
</g>
</svg>
