<?xml version="1.0" encoding="utf-8"?>
<!-- Generator: Adobe Illustrator 18.1.1, SVG Export Plug-In . SVG Version: 6.00 Build 0)  -->
<svg version="1.0" id="Layer_1" xmlns="http://www.w3.org/2000/svg" xmlns:xlink="http://www.w3.org/1999/xlink" x="0px" y="0px"
	 width="655.433px" height="382.84px" viewBox="0 0 655.433 382.84" enable-background="new 0 0 655.433 382.84"
	 xml:space="preserve">
<g id="g10_4_" transform="matrix(1.25,0,0,-1.25,0,383.75)">
	<g id="g12_4_" transform="scale(0.1,0.1)">
		<path id="path14_4_" fill="#070607" d="M5227.42,777.464l-26.77,19.528c-91.79,67.39-182.49,136.906-270.35,207.598
			c10.24,96.05,18.43,191.55,23.94,286.65c2.05,7.32,4.09,14.72,5.98,22.2c20.94,80.62,31.81,163.59,31.81,248.23
			c0,641.78-617.86,1170.28-1455.67,1392.45c-281.53,74.71-590.61,115.88-914.65,115.88c-308.62,0-616.28-36.76-914.65-115.88
			C869.239,2731.95,251.388,2203.45,251.388,1561.67c0-84.24,10.867-166.74,31.492-247.13c2.047-8.34,4.41-16.85,6.769-25.35
			c5.512-94.39,13.699-189.34,23.934-284.67C225.567,933.581,136.29,863.671,43.707,797.226l-27.398-19.602
			c-24.406-17.636-20.785-55.187,6.613-67.785l30.547-14.011c85.497-39.208,171.152-76.051,257.438-110.692l-25.664-65.816
			l-7.242-17.95c-8.192-20.234,1.73-43.3,22.043-51.332l18.105-7.164C1049.37,152.609,1836.64,7.277,2622.81,7.277
			c786.33,0,1572.81,145.883,2302.77,435.597l18.11,7.164c20.15,8.032,29.92,30.786,22.04,50.938l-7.08,18.187l-25.83,65.973
			c86.45,34.719,172.73,71.801,257.6,110.926l30.07,13.855C5247.889,722.515,5251.509,759.675,5227.42,777.464L5227.42,777.464z
			 M310.591,1561.6c0,600.22,581.636,1115.09,1410.789,1335.23c276.65,73.49,581.01,114.15,900.33,114.15
			c319,0,622.89-40.5,899.38-113.83c829.63-219.97,1411.73-735.01,1411.73-1335.39c0-67.4-7.4-133.84-21.57-198.84l-21.41-9.77
			c-63.61-28.81-127.54-56.35-191.94-82.77c38.42,97.02,57.94,195.32,57.94,291.22c0,469.09-464.8,948.11-1279.94,1164.25
			c-261.22,69.16-549.83,107.9-854.19,107.9c-288.14,0-575.5-33.94-854.03-107.9C952.376,2509.55,487.727,2030.69,487.727,1561.6
			c0-95.9,19.368-194.04,57.786-291.22c-64.243,26.42-127.852,54.12-191.305,82.77l-22.043,9.93
			C317.993,1427.92,310.591,1494.2,310.591,1561.6L310.591,1561.6z M4382.68,1151.1l-4.88-1.73c-10.24-3.54-15.75-14.72-12.13-24.95
			l35.9-104.16c-283.1-94.944-573.6-167.218-868.36-215.87c-46.45-7.082-92.9-14.172-139.35-21.254
			c-255.07-35.586-513.14-53.691-771.05-53.691c-259.33,0-518.65,18.261-775.62,54.32c-46.29,7.086-92.58,14.172-138.88,21.258
			c-293.81,48.652-583.68,120.609-865.997,215.237l35.903,104c3.464,10.24-1.891,21.42-12.125,25.04l-4.723,1.65l-22.203,7.87
			c-82.66,28.82-164.223,59.44-245.156,91.95c-37.629,95.11-66.918,220.12-66.918,310.9c0,441.74,441.343,911.5,1250.659,1126.03
			c275.39,72.98,559.28,106.76,843.96,106.76c301.05,0,586.36-38.34,844.11-106.76c809.16-214.53,1250.66-684.22,1250.66-1126.03
			c0-92.66-26.61-214.61-65.34-310.35c-81.25-32.59-163.28-63.53-246.42-92.5L4382.68,1151.1L4382.68,1151.1z M4646.91,1105.73
			c-74.13-29.44-149.28-56.86-225.45-83.25l-37.58,108.63C4471.219,1120.96,4559.58,1111.82,4646.91,1105.73L4646.91,1105.73z
			 M822.47,1022.4c-76.165,26.4-151.321,53.81-226.469,83.25c89.367,6.09,176.707,15.23,264.047,25.38L822.47,1022.4z
			 M78.059,749.41c102.575,74.117,201.082,151.277,297.563,229.457c-13.203,119.803-23.359,238.593-29.453,356.363
			c159.445-72.09,320.922-137.06,486.457-194.93c-88.352-10.16-177.723-18.28-267.094-23.36L371.559,624.531
			C273.048,663.113,175.555,704.738,78.059,749.41z M2622.89,66.203c-778.94,0-1557.88,147.219-2282.995,431.496l234.598,599.011
			C1225.47,841.878,1924.18,709.894,2622.89,709.894s1396.4,131.984,2046.37,386.816l234.59-599.011
			C4179.75,213.421,3401.83,66.203,2622.89,66.203z M4872.37,624.609L4678.4,1117.02c-89.37,5.08-178.74,13.2-267.09,23.35
			c165.53,57.88,327.01,122.85,486.45,194.94c-6.09-117.78-16.25-236.56-29.45-356.365c96.48-78.18,196-155.34,297.56-229.453
			C5069.39,704.816,4970.88,663.191,4872.37,624.609"/>
	</g>
</g>
</svg>
