<?xml version="1.0" encoding="utf-8"?>
<!-- Generator: Adobe Illustrator 18.1.1, SVG Export Plug-In . SVG Version: 6.00 Build 0)  -->
<svg version="1.0" id="Layer_1" xmlns="http://www.w3.org/2000/svg" xmlns:xlink="http://www.w3.org/1999/xlink" x="0px" y="0px"
	 width="555.717px" height="202.002px" viewBox="0 0 555.717 202.002" enable-background="new 0 0 555.717 202.002"
	 xml:space="preserve">
<g id="g10_4_" transform="matrix(1.25,0,0,-1.25,0,201.25)">
	<g id="g12_4_" transform="scale(0.1,0.1)">
		<path id="path14_4_" fill="#070607" d="M4336.668,802.024c0,8.191,3.05,16.258,9.14,22.418c68.6,69.356,101.75,165,99.85,261.978
			c-2.67,130.39-61.92,244.77-164.25,315.9c-73.55,51.07-169.77,75.9-269.62,75.9c-27.82,0-55.64-5.27-83.46-5.27
			c-13.53,0-25.53,8.44-29.91,21.14c-23.25,67.32-91.66,115.91-161.58,115.91c-44.59,0-86.7-19.56-116.23-52.84
			c-6.49-7.3-15.06-11.11-24.2-11.11H849.332c-9.144,0-17.722,3.81-24.199,11.11c-29.535,33.28-71.648,52.84-116.234,52.84
			c-69.93,0-138.332-48.59-161.578-115.91c-4.383-12.7-16.391-21.14-29.918-21.14c-27.821,0-55.641,5.27-83.457,5.27
			c-99.844,0-196.071-24.83-269.622-75.9c-102.32-71.13-161.582-185.51-164.246-315.9c-1.91-96.978,31.246-192.622,99.844-261.978
			c6.094-6.16,9.145-14.227,9.145-22.418c0-8.258-3.051-16.32-9.145-22.48C32.09,711.012,0.078,614.735,0.078,517.563
			c2.664-130.39,61.926-244.769,164.246-315.902c73.551-51.063,169.778-75.895,269.622-75.895c27.816,0,55.636,5.27,83.457,5.27
			c13.527,0,25.535-8.446,29.918-21.149C570.567,42.571,638.969-6.019,708.899-6.019c42.679,0,87.652,20.516,116.234,52.844
			c6.477,7.305,15.055,11.113,24.199,11.113h2747.076c9.14,0,17.71-3.809,24.2-11.113c28.58-32.328,73.54-52.844,116.23-52.844
			c69.92,0,138.33,48.59,161.58,115.906c4.38,12.703,16.38,21.149,29.91,21.149c27.82,0,55.64-5.27,83.46-5.27
			c99.85,0,196.07,24.832,269.62,75.895c102.33,71.133,161.58,185.512,164.25,315.902c0,97.172-32.01,193.449-99.85,261.981
			C4339.718,785.704,4336.667,793.766,4336.668,802.024L4336.668,802.024z M4240.368,261.501
			c-72.96-50.235-179.07-72.34-294.04-59.004c-39.79,4.828-88.43,23.058-134.86,47.886c15.48-25.148,26.54-52.394,24.33-81.988
			c0-21.086-6.64-44.269-19.91-61.926c-24.31-32.961-70.74-48.84-108.33-34.23c-24.31,9.336-44.21,32.07-50.84,58.559H789.289
			c-6.629-26.489-26.531-49.223-50.847-58.559c-37.582-14.609-84.012,1.27-108.329,34.23c-13.265,17.657-19.898,40.84-19.898,61.926
			c-2.215,29.594,8.844,56.84,24.32,81.988c-46.429-24.828-95.066-43.058-134.863-47.886
			c-114.961-13.336-221.078,8.769-294.035,59.004C123.84,318.661,75.199,410.43,72.988,518.782
			c-2.215,134.004,75.167,255.625,218.871,279.062c8.839,1.016,15.472,1.715,22.105,2.032c2.211,0.129,2.211,3.746,0,3.875
			c-6.633,0.316-13.266,1.015-22.105,2.031C148.156,829.219,70.773,950.84,72.988,1084.84
			c2.211,108.36,50.852,200.13,132.648,257.29c72.957,50.23,179.074,72.34,294.035,59c39.797-4.83,88.434-23.06,134.863-47.89
			c-15.476,25.15-26.535,52.39-24.32,82c0,21.08,6.633,44.26,19.898,61.92c24.317,32.96,70.747,48.83,108.329,34.23
			c24.316-9.34,44.218-32.07,50.847-58.56h2867.429c6.63,26.49,26.53,49.22,50.84,58.56c37.59,14.6,84.02-1.27,108.33-34.23
			c13.27-17.66,19.91-40.84,19.91-61.92c2.21-29.61-8.85-56.85-24.33-82c46.43,24.83,95.07,43.06,134.86,47.89
			c114.97,13.34,221.08-8.77,294.04-59c81.8-57.16,130.44-148.93,132.65-257.29c2.22-134-75.17-255.621-218.87-279.058
			c-8.84-1.016-15.48-1.715-22.1-2.031c-2.22-0.129-2.22-3.746,0-3.875c6.62-0.317,13.26-1.016,22.1-2.032
			c143.7-23.437,221.09-145.058,218.87-279.062C4370.808,410.43,4322.167,318.661,4240.368,261.501"/>
		<path id="path16_2_" fill="#070607" d="M4149.368,767.149c-6.54,1.016-13.07,1.711-17.43,2.027v-4.125
			c0-10.351-30.51-9.652-30.51,0.7v3.812c-19.61-1.398-37.05-4.512-54.48-10.039c-71.92-21.719-130.76-76.465-135.12-157.059
			c-4.36-54.937,15.26-112.289,65.38-139.214c65.38-34.68,159.09-5.145,159.09,75.769c2.18,34.61-17.44,73.035-54.48,73.035
			c-10.9,0-26.15-0.254-30.51-12.004c-2.19-8.32-10.9-12.449-17.44-9.652c-13.07,5.016-13.07,20.195-6.54,29.594
			c13.08,15.941,32.69,23.121,54.49,23.121c54.48,0,87.17-53.16,84.99-104.731c0-103.968-117.69-147.851-202.67-102.695
			c-61.02,32.324-87.17,102-82.82,168.809c0,20.324,4.36,38.933,10.9,56.144c-21.79-14.484-45.76-27.179-71.92-34.426
			c-32.68-9.906-71.91-6.539-102.42,12.325c-28.33,16.953-52.3,53.156-52.3,88.277c0,33.473,21.79,66.051,54.48,75.324
			c-32.69,9.274-54.48,41.789-54.48,75.258c0,35.121,23.97,71.324,52.3,88.281c30.51,18.864,69.74,22.227,102.42,12.321
			c26.16-7.239,50.13-19.942,71.92-34.422c-6.54,17.211-10.9,35.82-10.9,56.141c-4.35,66.82,21.8,136.48,82.82,168.81
			c84.98,45.15,202.67,1.27,202.67-102.69c2.18-51.57-30.51-104.73-84.99-104.73c-21.8,0-41.41,7.176-54.49,23.113
			c-6.53,9.399-6.53,24.577,6.54,29.597c6.54,2.79,15.25-1.33,17.44-9.66c4.36-11.745,19.61-11.995,30.51-11.995
			c37.04,0,56.66,38.425,54.48,73.035c0,80.91-93.71,110.45-159.09,75.77c-50.12-26.93-69.74-84.28-65.38-139.22
			c4.36-80.593,63.2-135.335,135.12-157.058c17.43-5.527,34.87-8.633,54.48-10.035v3.812c0,10.356,30.51,11.051,30.51,0.696v-4.125
			c4.36,0.316,10.89,1.019,17.43,2.035c124.22,20.004,193.95,126.125,191.78,247.745c-2.18,97.56-43.59,180.75-119.86,232.64
			c-67.56,45.73-165.62,65.54-270.23,52.97c-69.74-8.26-165.62-57.54-215.75-111.65c-23.97-25.53-43.58-56.65-41.4-92.28
			c0-33.09,23.97-61.35,54.48-67.58c34.87-6.79,71.91,26.74,58.84,59.26c-4.36,13.46-17.44,21.02-26.15,20.7
			c-4.36,0-15.26-6.16-17.43-12.76c-4.37-7.94-13.08-10.99-21.8-7.94c-6.54,3.81-10.89,13.08-6.54,20.7
			c6.54,19.69,26.16,30.43,45.77,31c26.15,0.69,45.76-18.93,54.48-40.33c19.61-53.6-34.87-112.86-91.53-101.3
			c-47.94,9.65-78.45,50.68-82.81,96.15c-2.18,58.24,39.22,102.82,76.27,143.66c34.87,39.32,67.56,82,67.56,127.15
			c0,14.17-4.36,30.3-13.08,42.68c-17.43,22.8-50.12,34.68-74.09,24.83c-17.44-7.24-32.69-26.86-32.69-45.47
			c0-18.23,17.43-35.12,34.87-35.12c8.72,0,19.61,2.09,19.61,11.68c2.18,8.26,8.72,14.48,17.44,13.47
			c8.71-1.08,15.25-8.96,13.07-17.28c-2.18-24.89-26.15-38.68-50.12-38.93c-28.33-0.32-52.3,19.69-61.02,44.84
			c0,2.03-2.18,4.13-2.18,6.16H788.961c0-2.03-2.176-4.13-2.176-6.16c-8.718-25.15-32.691-45.16-61.019-44.84
			c-23.973,0.25-47.942,14.04-50.125,38.93c-2.18,8.32,4.359,16.2,13.074,17.28c8.719,1.01,15.254-5.21,17.438-13.47
			c0-9.59,10.898-11.68,19.613-11.68c17.43,0,34.867,16.89,34.867,35.12c0,18.61-15.258,38.23-32.687,45.47
			c-23.977,9.85-56.665-2.03-74.098-24.83c-8.715-12.38-13.074-28.51-13.074-42.68c0-45.15,32.687-87.83,67.554-127.15
			c37.047-40.84,78.457-85.42,76.274-143.66c-4.356-45.47-34.867-86.5-82.809-96.15c-56.66-11.56-111.144,47.7-91.527,101.3
			c8.715,21.4,28.328,41.02,54.48,40.33c19.614-0.57,39.223-11.31,45.762-31c4.359-7.62,0-16.89-6.539-20.7
			c-8.715-3.05-17.43,0-21.789,7.94c-2.18,6.6-13.078,12.76-17.434,12.76c-8.718,0.32-21.793-7.24-26.152-20.7
			c-13.074-32.52,23.973-66.05,58.84-59.26c30.512,6.23,54.48,34.49,54.48,67.58c2.18,35.63-17.433,66.75-41.406,92.28
			c-50.121,54.11-146.012,103.39-215.746,111.65c-104.602,12.57-202.668-7.24-270.227-52.97
			c-76.273-51.89-117.679-135.08-119.859-232.64c-2.176-121.62,67.559-227.741,191.773-247.745
			c6.543-1.016,13.075-1.719,17.434-2.035v4.125c0,10.355,30.512,9.66,30.512-0.696v-3.812c19.613,1.402,37.051,4.508,54.48,10.035
			c71.918,21.723,130.754,76.465,135.113,157.058c4.364,54.94-15.253,112.29-65.375,139.22
			c-65.378,34.68-159.089,5.14-159.089-75.77c-2.176-34.61,17.437-73.035,54.484-73.035c10.895,0,26.152,0.25,30.508,11.995
			c2.183,8.33,10.898,12.45,17.437,9.66c13.075-5.02,13.075-20.198,6.539-29.597c-13.078-15.937-32.691-23.113-54.484-23.113
			c-54.484,0-87.168,53.16-84.992,104.73c0,103.96,117.683,147.84,202.672,102.69c61.019-32.33,87.168-101.99,82.808-168.81
			c0-20.321-4.355-38.93-10.898-56.141c21.797,14.48,45.769,27.183,71.922,34.422c32.687,9.906,71.914,6.543,102.426-12.321
			c28.328-16.957,52.3-53.16,52.3-88.281c0-33.469-21.797-65.984-54.48-75.258c32.683-9.273,54.48-41.851,54.48-75.324
			c0-35.121-23.972-71.324-52.3-88.277c-30.512-18.864-69.739-22.231-102.426-12.325c-26.153,7.247-50.125,19.942-71.922,34.426
			c6.543-17.211,10.898-35.82,10.898-56.144c4.36-66.809-21.789-136.485-82.808-168.809
			c-84.989-45.156-202.672-1.273-202.672,102.695c-2.176,51.571,30.508,104.731,84.992,104.731c21.793,0,41.406-7.18,54.484-23.121
			c6.536-9.399,6.536-24.578-6.539-29.594c-6.539-2.797-15.254,1.332-17.437,9.652c-4.356,11.75-19.613,12.004-30.508,12.004
			c-37.047,0-56.66-38.425-54.484-73.035c0-80.914,93.711-110.449,159.089-75.769c50.122,26.925,69.739,84.277,65.375,139.214
			c-4.359,80.594-63.195,135.34-135.113,157.059c-17.429,5.527-34.867,8.641-54.48,10.039v-3.812c0-10.352-30.512-11.051-30.512-0.7
			v4.125c-4.359-0.316-10.891-1.011-17.434-2.027C172.235,747.141,102.5,641.016,104.676,519.391
			c2.18-97.547,43.586-180.746,119.859-232.636c67.559-45.727,165.625-65.543,270.227-52.965
			c69.734,8.254,165.625,57.539,215.746,111.648c23.973,25.531,43.586,56.652,41.406,92.281c0,33.09-23.968,61.352-54.48,67.575
			c-34.867,6.796-71.914-26.739-58.84-59.254c4.359-13.465,17.434-21.024,26.152-20.703c4.356,0,15.254,6.16,17.434,12.765
			c4.359,7.938,13.074,10.985,21.789,7.938c6.539-3.813,10.898-13.086,6.539-20.703c-6.539-19.688-26.148-30.422-45.762-30.997
			c-26.152-0.695-45.765,18.926-54.48,40.333c-19.617,53.597,34.867,112.855,91.527,101.296
			c47.942-9.652,78.453-50.679,82.809-96.152c2.183-58.242-39.227-102.824-76.274-143.664
			c-34.867-39.309-67.554-81.992-67.554-127.145c0-14.16,4.359-30.293,13.074-42.679c17.433-22.797,50.121-34.68,74.098-24.832
			c17.429,7.238,32.687,26.863,32.687,45.472c0,3.813-2.184,7.243-2.184,11.051c-6.535,14.418-19.609,24.07-32.683,24.07
			c-8.715,0-19.613-2.093-19.613-11.683c-2.184-8.258-8.719-14.484-17.438-13.469c-8.715,1.082-15.254,8.957-13.074,17.277
			c2.183,24.895,26.152,38.676,50.125,38.93c28.328,0.32,52.301-19.683,61.019-44.836c0-2.035,2.176-4.133,2.176-6.16h2867.897
			c0,2.027,2.18,4.125,2.18,6.16c8.72,25.153,32.69,45.156,61.02,44.836c23.97-0.254,47.94-14.035,50.12-38.93
			c2.18-8.32-4.36-16.195-13.07-17.277c-8.72-1.015-15.26,5.211-17.44,13.469c0,9.59-10.89,11.683-19.61,11.683
			c-13.08,0-26.15-9.652-32.69-24.07c0-3.808-2.18-7.238-2.18-11.051c0-18.609,15.25-38.234,32.69-45.472
			c23.97-9.848,56.66,2.035,74.09,24.832c8.72,12.386,13.08,28.519,13.08,42.679c0,45.153-32.69,87.836-67.56,127.145
			c-37.05,40.84-78.45,85.422-76.27,143.664c4.36,45.473,34.87,86.5,82.81,96.152c56.66,11.559,111.14-47.699,91.53-101.296
			c-8.72-21.407-28.33-41.028-54.48-40.333c-19.61,0.575-39.23,11.309-45.77,30.997c-4.35,7.617,0,16.89,6.54,20.703
			c8.72,3.047,17.43,0,21.8-7.938c2.17-6.605,13.07-12.765,17.43-12.765c8.71-0.321,21.79,7.238,26.15,20.703
			c13.07,32.515-23.97,66.05-58.84,59.254c-30.51-6.223-54.48-34.485-54.48-67.575c-2.18-35.629,17.43-66.75,41.4-92.281
			c50.13-54.109,146.01-103.394,215.75-111.648c104.61-12.578,202.67,7.238,270.23,52.965
			c76.27,51.89,117.68,135.089,119.86,232.636C4343.318,641.016,4273.588,747.141,4149.368,767.149L4149.368,767.149z
			 M3664.008,538.587c-25.93-25.336-41.82-60.016-44.05-96.469c-4.18-49.031,19.24-91.649,44.33-124.547
			c34.01-44.391-10.88-114.445-64.4-114.445H845.77c-53.532,0-98.418,70.054-64.403,114.445
			c25.094,32.898,48.512,75.516,44.329,124.547c-2.227,36.453-18.122,71.133-44.051,96.469c-25.09,24.136-25.93,63.769-2.231,89.043
			c24.258,25.722,41.821,61.351,41.821,98.886c0,16.957-3.625,33.977-10.594,49.602c-7.246,16.383-7.246,35.055,0,51.441
			c6.969,15.621,10.594,32.582,10.594,49.539c0,37.469-17.563,73.164-41.821,98.825c-23.98,25.277-23.14,64.967,1.953,89.167
			c26.207,25.34,42.102,59.95,44.329,96.41c2.792,45.79-17.008,88.59-44.329,124.48c-33.457,44.01,9.2,114.51,64.403,114.51
			h2754.118c55.2,0,97.85-70.5,64.4-114.51c-27.32-35.89-47.12-78.69-44.33-124.48c2.23-36.46,18.12-71.07,44.33-96.41
			c25.09-24.2,25.93-63.89,1.95-89.167c-24.26-25.661-41.82-61.356-41.82-98.825c0-16.957,3.62-33.918,10.59-49.539
			c7.25-16.386,7.25-35.058,0-51.441c-6.97-15.625-10.59-32.645-10.59-49.602c0-37.535,17.56-73.164,41.82-98.886
			C3689.938,602.356,3689.098,562.723,3664.008,538.587"/>
		<path id="path18_1_" fill="#070607" d="M3696.408,725.934c0-23.754,16.89-47.886,35.37-59.894c23-14.985,52.53-16.891,79.34-10.41
			c42.05,12.066,77.93,39.246,113.05,67.191c34.43,27.371,71.14,52.715,113.38,66.113c19.82,6.289,40.39,10.035,60.91,11.242
			c1.14-0.191,2.34,3.305,0,3.239c-20.52,1.207-41.09,4.953-60.91,11.242c-42.24,13.402-78.95,38.742-113.38,66.113
			c-35.12,27.945-71,55.129-113.05,67.192c-26.81,6.48-56.34,4.574-79.34-10.414c-18.48-12.004-35.37-36.133-35.37-59.891
			c0.31-19.242,10.67-35.438,24.45-43.059v1.399c0,10.355,30.3,11.051,30.3,0.699v-4.129c1.39,0.316,3.11,1.02,4.51,1.715
			c8.95,4.129,15.18,14.098,14.8,24.832c0,4.129-1.02,8.254-3.43,12.004c-4.13,7.242-1.4,16.894,5.84,21.402
			c7.24,3.746,17.21,1.336,21.02-6.222c4.83-8.254,7.63-17.211,7.63-26.864c0.31-22.418-12.07-43.441-32.78-53.035
			c-3.87-1.84-7.81-3.297-11.75-4.574c3.94-1.27,7.88-2.793,11.75-4.629c20.71-9.594,33.09-30.617,32.78-53.035
			c0-9.653-2.8-18.61-7.63-26.867c-3.81-7.555-13.78-9.969-21.02-6.223c-7.24,4.512-9.97,14.164-5.84,21.402
			c2.41,3.746,3.43,7.875,3.43,12.004c0.38,10.735-5.85,20.707-14.8,24.836c-1.4,0.695-3.12,1.395-4.51,1.711v-4.125
			c0-10.351-30.3-9.656-30.3,0.695v1.399C3707.078,761.372,3696.718,745.176,3696.408,725.934"/>
		<path id="path20_1_" fill="#070607" d="M749.281,877.657c0,23.758-16.894,47.887-35.375,59.891
			c-22.996,14.988-52.527,16.894-79.332,10.414c-42.046-12.063-77.933-39.247-113.058-67.192
			c-34.422-27.371-71.129-52.711-113.367-66.113c-19.821-6.289-40.395-10.035-60.911-11.242c-2.351,0.066-1.144-3.43,0-3.239
			c20.516-1.207,41.09-4.953,60.911-11.242c42.238-13.398,78.945-38.742,113.367-66.113c35.125-27.945,71.012-55.125,113.058-67.191
			c26.805-6.481,56.336-4.575,79.332,10.41c18.481,12.008,35.375,36.14,35.375,59.894c-0.312,19.242-10.668,35.438-24.449,43.059
			v-1.399c0-10.351-30.301-11.046-30.301-0.695v4.125c-1.394-0.316-3.113-1.016-4.507-1.711
			c-8.957-4.129-15.18-14.101-14.801-24.836c0-4.129,1.019-8.258,3.43-12.004c4.132-7.238,1.402-16.89-5.84-21.402
			c-7.242-3.746-17.215-1.332-21.024,6.223c-4.824,8.257-7.625,17.214-7.625,26.867c-0.316,22.418,12.071,43.441,32.778,53.035
			c3.871,1.836,7.812,3.359,11.75,4.629c-3.938,1.277-7.879,2.734-11.75,4.574c-20.707,9.594-33.094,30.617-32.778,53.035
			c0,9.653,2.801,18.61,7.625,26.864c3.809,7.558,13.782,9.968,21.024,6.222c7.242-4.508,9.972-14.16,5.84-21.402
			c-2.411-3.75-3.43-7.875-3.43-12.004c-0.379-10.734,5.844-20.703,14.801-24.832c1.394-0.695,3.113-1.399,4.507-1.715v4.129
			c0,10.352,30.301,9.656,30.301-0.699v-1.399C738.613,842.219,748.969,858.415,749.281,877.657"/>
	</g>
</g>
</svg>
