<?xml version="1.0" encoding="utf-8"?>
<!-- Generator: Adobe Illustrator 18.1.1, SVG Export Plug-In . SVG Version: 6.00 Build 0)  -->
<svg version="1.0" id="Layer_1" xmlns="http://www.w3.org/2000/svg" xmlns:xlink="http://www.w3.org/1999/xlink" x="0px" y="0px"
	 width="621.982px" height="205.518px" viewBox="0 0 621.982 205.518" enable-background="new 0 0 621.982 205.518"
	 xml:space="preserve">
<g id="g10_5_" transform="matrix(1.25,0,0,-1.25,0,206.25)">
	<g id="g12_5_" transform="scale(0.1,0.1)">
		<path id="path14_5_" fill="#070607" d="M4965.824,892.329c-727.99,501.32-1603.1,758.3-2477.58,757.67
			c-874.48,0.63-1750.217-256.35-2478.213-757.67C181.14,667.552-121.926,557.692,61.175,277.985
			C244.277-1.722,462.742,253.993,608.589,5.856c549.315,380.098,1216.065,574.567,1879.655,574.567
			s1329.71-194.469,1879.02-574.567c145.85,248.137,364.31-7.578,547.42,272.129
			C5097.784,557.692,4794.713,667.552,4965.824,892.329z M4847.694,321.614c-136.84-210.363-324.26-22.949-499.14-207.176
			c-550.77,361.446-1208,545.672-1861.19,545.672S1177.784,475.884,627.019,114.438c-174.879,184.227-362.297-3.187-499.141,207.176
			c-143.43,220.457,94.137,306.199-10.625,546.949c701.43,464.076,1536.511,701.746,2370.961,701.746
			s1668.68-237.67,2370.11-701.746C4753.564,627.813,4991.124,542.071,4847.694,321.614"/>
	</g>
</g>
</svg>
