<?xml version="1.0" encoding="utf-8"?>
<!-- Generator: Adobe Illustrator 18.1.1, SVG Export Plug-In . SVG Version: 6.00 Build 0)  -->
<svg version="1.0" id="Layer_1" xmlns="http://www.w3.org/2000/svg" xmlns:xlink="http://www.w3.org/1999/xlink" x="0px" y="0px"
	 width="564.443px" height="542.667px" viewBox="0 0 564.443 542.667" enable-background="new 0 0 564.443 542.667"
	 xml:space="preserve">
<g id="g10" transform="matrix(1.25,0,0,-1.25,0,543.75)">
	<g id="g12" transform="scale(0.1,0.1)">
		<path id="path14" fill="#070607" d="M4357.894,2422.95c-66.61,112.96-182.11,152.58-284.12,163.54
			c84.3,56.48,170.3,144.99,177.89,274.81c7.59,141.62,10.96,229.29,26.98,287.46c-55.65,21.91-127.31,72.49-246.18,151.73
			c-107.92,72.5-231.01,58.16-327.96,23.61c53.11,88.51,92.74,204.84,42.15,325.38c-53.11,131.51-87.68,212.43-97.79,272.28
			c-59.86-4.21-146.7,10.12-286.65,30.35c-128.99,20.23-233.53-46.36-305.2-117.17c8.43,102-5.06,224.23-102.85,312.75
			c-104.55,95.25-171.15,153.42-205.71,202.31c-51.43-30.35-135.74-53.95-271.48-95.26c-125.61-38.78-189.69-143.3-225.1-238.56
			c-35.41,95.26-100.33,199.78-225.95,237.72c-134.89,41.31-220.04,65.75-272.31,95.25c-33.73-48.89-100.33-107.05-204.87-202.31
			c-96.11-88.51-110.45-210.74-100.33-312.74c-72.5,71.65-176.2,137.4-306.03,117.17c-139.96-21.08-226.797-35.41-286.657-31.19
			c-9.273-59.01-43.836-140.78-96.109-272.29c-48.899-121.38-8.43-237.71,43.84-324.54c-96.957,32.88-218.36,48.89-327.114-25.29
			c-118.035-79.24-188.851-128.98-245.34-150.89c16.864-58.17,20.235-145.84,29.508-286.61c7.59-131.51,93.586-219.18,179.575-276.5
			c-102.008-10.961-218.36-49.741-284.114-163.541C84.309,2298.19,42.152,2224.01,0,2180.17
			c42.152-43.83,84.309-119.7,155.972-241.93c65.754-113.8,182.106-152.58,284.114-163.54
			c-85.989-57.32-171.985-144.99-179.575-276.5c-9.273-140.77-12.644-228.44-29.508-286.61
			c56.489-21.92,127.305-71.65,245.34-150.89c108.754-74.186,230.157-58.167,327.114-25.29
			c-52.27-86.826-92.739-203.158-43.84-324.549c52.273-131.504,86.836-213.269,96.109-272.281
			c59.86,4.219,146.697-10.113,286.657-31.191c129.83-20.227,233.53,45.523,306.03,117.175c-10.12-102,4.22-224.234,100.33-312.742
			c104.54-95.262,171.14-153.426,204.87-202.316c52.27,29.504,137.42,53.949,272.31,95.258
			c125.62,37.933,190.54,142.461,225.95,237.714c35.41-95.253,99.49-199.781,225.1-238.558
			c135.74-41.309,220.05-64.91,271.48-95.258c34.56,48.891,101.16,107.059,205.71,202.316
			c97.79,88.512,111.28,210.743,102.85,312.743c71.67-70.809,176.21-137.403,305.2-117.176
			c139.95,20.234,226.79,34.566,286.65,30.351c10.11,59.852,44.68,140.774,97.79,272.282c50.59,120.543,10.96,236.875-42.15,325.382
			c96.95-34.554,220.04-48.886,327.96,23.61c118.87,79.24,190.53,129.82,246.18,151.73c-16.02,58.17-19.39,145.84-26.98,287.46
			c-7.59,129.82-93.59,218.33-177.89,274.81c102.01,10.96,217.51,50.58,284.12,163.54c72.5,121.39,116.34,198.1,157.65,241.09
			C4474.233,2219.79,4430.394,2301.56,4357.894,2422.95L4357.894,2422.95z M2257.453,499.685
			c-927.54,0-1679.625,752.065-1679.625,1679.585c0,927.53,752.085,1679.6,1679.625,1679.6c927.55,0,1679.63-752.07,1679.63-1679.6
			C3937.083,1251.749,3185.003,499.684,2257.453,499.685"/>
	</g>
</g>
</svg>
