<?xml version="1.0" encoding="utf-8"?>
<!-- Generator: Adobe Illustrator 18.1.1, SVG Export Plug-In . SVG Version: 6.00 Build 0)  -->
<svg version="1.0" id="Layer_1" xmlns="http://www.w3.org/2000/svg" xmlns:xlink="http://www.w3.org/1999/xlink" x="0px" y="0px"
	 width="585.76px" height="400.661px" viewBox="0 0 585.76 400.661" enable-background="new 0 0 585.76 400.661"
	 xml:space="preserve">
<g id="g10_3_" transform="matrix(1.25,0,0,-1.25,0,401.25)">
	<g id="g12_3_" transform="scale(0.1,0.1)">
		<path id="path14_3_" fill="#070607" d="M4638.704,403.879l46.54,24.485v2358.112l-46.54,24.48c34.69,48.34,52.47,111,45.97,173.15
			c-6.48,59.02-33,111.88-73.06,151.44c-39.49,40.05-92.53,66.67-151.49,73.08c-62.06,6.65-124.69-11.18-173.22-45.96l-24.26,46.46
			l-3839.202-0.13l-24.543-46.46c-48.238,34.78-110.867,52.62-173.214,45.96c-58.957-6.41-111.711-33.02-151.208-73.08
			c-40.063-39.55-66.859-92.42-73.07-151.43c-6.77-62.15,11.285-124.81,45.707-173.15l-46.266-24.49V428.235l46.547-24.484
			c-34.703-48.344-52.758-111-45.988-173.149c6.496-59.019,33.008-111.883,73.07-151.437C113.973,39.11,167.008,12.492,225.969,6.09
			C288.031-0.566,350.66,17.262,399.18,52.047l24.261-46.465l3839.202,0.129l24.26,46.457c48.53-34.777,111.16-52.609,173.5-45.953
			c58.96,6.398,111.72,33.023,151.21,73.078c40.06,39.55,66.86,92.414,73.06,151.434
			C4691.453,292.879,4673.394,355.54,4638.704,403.879L4638.704,403.879z M3839.254,3146.346h385.94l17.7-33.53l-10.8-15.57
			c-23.35-34.02-38.16-74.46-41.8-117.9l-1.39-17.83l-32.26-15.7l-14.94,9.79c-86.12,56.76-181.67,100.71-283.49,129.09l-26.37,7.41
			L3839.254,3146.346L3839.254,3146.346z M461.274,3146.346h385.938l7.41-54.24l-26.367-7.41
			c-101.816-28.38-197.363-72.33-283.488-129.09l-14.942-9.79l-32.261,15.7l-1.383,17.83c-3.641,43.44-18.457,83.88-41.805,117.9
			l-10.801,15.57L461.274,3146.346L461.274,3146.346z M63.997,2977.476c4.773,44.32,24.863,84,54.867,113.63
			c29.629,30.02,69.305,50.11,113.621,54.88c107.723,11.42,207.911-76.34,207.911-186.97c0-52.23-21.34-99.57-55.743-133.73
			c-34.152-34.4-81.484-55.75-133.711-55.75C140.336,2769.536,52.575,2869.736,63.997,2977.476L63.997,2977.476z M118.094,2355.506
			l-54.238,7.41v385.99l33.52,17.7l15.57-10.8c34.02-23.35,74.45-38.17,117.891-41.81l17.824-1.38l15.696-32.27l-9.793-14.94
			c-56.747-86.14-100.688-181.69-129.063-283.53L118.094,2355.506L118.094,2355.506z M254.563,549.567l9.793-14.941l-15.696-32.27
			l-17.824-1.383c-43.441-3.64-83.871-18.457-117.891-41.812l-15.57-10.797l-33.519,17.707v385.984l54.238,7.41l7.406-26.371
			C153.875,731.258,197.816,635.708,254.563,549.567z M232.484,68.988c-44.316,4.77-83.992,24.863-113.621,54.871
			C88.86,153.493,68.77,193.172,63.997,237.497C52.575,345.235,140.336,445.43,250.941,445.43
			c52.227,0,99.559-21.347,133.711-55.746c34.403-34.156,55.743-81.496,55.743-133.73
			C440.396,145.333,340.207,57.559,232.484,68.988z M847.211,68.629H461.273l-17.699,33.523l10.801,15.57
			c23.348,34.028,38.164,74.461,41.805,117.906l1.383,17.832l32.261,15.696l14.942-9.793
			c86.125-56.758,181.672-100.707,283.488-129.086l26.367-7.406C854.621,122.872,847.211,68.629,847.211,68.629z M1008.333,168.321
			c-54.981,0-109.97,7.281-163.056,22.223c-95.074,26.996-184.726,68.429-266.254,121.171l-44.695,29.508l-39.816-19.465
			c-11.649,43.067-34.672,81.621-65.547,112.008c-30.336,30.762-68.801,53.738-111.863,65.539l19.5,39.68l-29.528,44.828
			c-52.808,81.363-94.258,171.02-121.07,266.32c-15.164,52.993-22.484,107.864-22.484,162.863v1188.85
			c0,54.99,7.32,109.87,22.214,162.85c27.082,95.3,68.532,184.96,121.34,266.33l29.258,44.83l-19.504,39.67
			c43.067,11.8,81.801,34.78,112.137,65.54c30.605,30.39,53.629,68.94,65.547,112.01l39.543-19.46l44.968,29.51
			c81.528,52.73,170.911,94.17,266.254,121.16c53.086,14.95,107.797,22.23,162.786,22.23l2670.12,0.13
			c54.99,0,109.7-7.29,162.79-22.22c95.34-27.01,184.72-68.44,266.25-121.18l44.96-29.51l39.55,19.46
			c11.92-43.06,34.67-81.61,65.54-112c30.34-30.76,68.81-53.74,111.87-65.54l-19.22-39.68l29.25-44.83
			c52.81-81.36,94.25-171.01,121.33-266.32c14.91-52.99,22.22-107.86,22.22-162.86v-1188.85c0-54.994-7.31-109.865-22.22-162.854
			c-26.81-95.304-68.25-184.953-121.07-266.328l-29.51-44.824l19.49-39.68c-43.07-11.801-81.52-34.777-112.14-65.543
			c-30.6-30.386-53.62-68.933-65.27-112.004l-39.82,19.461l-44.69-29.508c-81.52-52.734-171.18-94.171-266.52-121.167
			c-52.82-14.938-107.8-22.223-162.79-22.223L1008.333,168.321L1008.333,168.321z M4568.374,2355.506l-7.4,26.37
			c-28.38,101.84-72.32,197.39-129.07,283.53l-9.79,14.94l15.69,32.27l17.83,1.38c43.44,3.64,83.87,18.46,117.89,41.81l15.57,10.8
			l33.52-17.7v-385.99L4568.374,2355.506L4568.374,2355.506z M4622.614,852.055V466.071l-33.52-17.707l-15.57,10.797
			c-34.02,23.355-74.45,38.172-117.89,41.812l-17.83,1.383l-15.69,32.27l9.79,14.941c56.75,86.141,100.69,181.691,129.07,283.527
			l7.4,26.371C4568.374,859.465,4622.614,852.055,4622.614,852.055z M4225.194,68.629h-385.94l-7.41,54.243l26.37,7.406
			c101.82,28.379,197.37,72.328,283.49,129.086l14.94,9.793l32.26-15.696l1.39-17.832c3.64-43.445,18.45-83.878,41.8-117.906
			l10.8-15.57L4225.194,68.629L4225.194,68.629z M4622.474,237.497c-4.77-44.325-24.86-84.004-54.87-113.637
			c-29.63-30.008-69.3-50.102-113.62-54.871c-107.72-11.43-207.91,76.344-207.91,186.965c0,52.234,21.34,99.574,55.74,133.73
			c34.16,34.399,81.49,55.746,133.71,55.746C4546.133,445.43,4633.894,345.235,4622.474,237.497z M4435.523,2769.946
			c-52.22,0-99.55,21.35-133.71,55.75c-34.4,34.16-55.74,81.5-55.74,133.73c0,110.62,100.19,198.39,207.91,186.96
			c44.32-4.77,83.99-24.86,113.62-54.87c30.01-29.63,50.1-69.31,54.87-113.64
			C4633.894,2870.146,4546.134,2769.946,4435.523,2769.946"/>
	</g>
</g>
</svg>
