<?xml version="1.0" encoding="utf-8"?>
<!-- Generator: Adobe Illustrator 18.1.1, SVG Export Plug-In . SVG Version: 6.00 Build 0)  -->
<svg version="1.0" id="Layer_1" xmlns="http://www.w3.org/2000/svg" xmlns:xlink="http://www.w3.org/1999/xlink" x="0px" y="0px"
	 width="620.198px" height="355.919px" viewBox="0 0 620.198 355.919" enable-background="new 0 0 620.198 355.919"
	 xml:space="preserve">
<g id="g10_1_" transform="matrix(1.25,0,0,-1.25,0,356.25)">
	<g id="g12_1_" transform="scale(0.1,0.1)">
		<path id="path14_1_" fill="#070607" d="M4882.113,1583.57h-658.85c-15.57,0-28.54,11.13-31.13,26.39
			c-107.71,614.06-576.78,994.54-1097.11,1151.16c-197.87,59.46-406.13,88.88-614.07,88.88c-207.93,0-416.52-29.42-614.39-88.88
			c-520.33-156.62-989.407-537.1-1097.106-1151.16c-2.594-15.26-15.57-26.39-31.141-26.39H79.473
			c-43.789,0-79.473-35.61-79.473-79.5V264.992c0-43.883,35.684-79.504,79.473-79.504H610.18c17.515,0,31.793-14.309,31.793-31.797
			V82.144c0-43.887,35.683-79.5,79.472-79.5h3518.688c43.79,0,79.48,35.613,79.48,79.5v71.547c0,17.488,14.27,31.797,31.79,31.797
			h530.71c43.79,0,79.47,35.621,79.47,79.504V1504.07C4961.583,1547.96,4925.903,1583.57,4882.113,1583.57z M4842.623,675.242
			V312.726c0-4.457-3.49-7.953-7.95-7.953H127.483c-4.453,0-7.953,3.496-7.953,7.953V1456.41c0,4.45,3.5,7.95,7.953,7.95h926.589
			c4.13,0,7.47,3.02,7.95,7l1.59,14.14c58.99,513.25,430.77,840.95,890.01,979.6c167.76,50.72,347.13,76.16,527.3,76.16
			c182.23,0,363.83-26.08,533.18-77.91c456.69-139.6,825.61-466.82,884.44-977.85l1.6-14.14c0.47-3.98,3.81-7,7.94-7h926.59
			c4.46,0,7.95-3.5,7.95-7.95V675.242"/>
		<path id="path16" fill="#070607" d="M3858.313,1416.66l-7.15,63.44c-54.86,485.58-406.28,801.51-848.67,937.3
			c-164.74,50.56-342.2,76.16-521.57,76.16c-176.67,0-351.27-24.81-513.78-73.78c-446.04-134.51-800.97-451.4-856.15-939.68
			l-7.15-63.44H165.645v-63.6h994.968l13.67,120.04c51.36,454.58,383.24,757,810.83,885.94c155.68,46.91,324.07,70.92,496.13,70.92
			c175.71,0,347.29-24.96,505.67-73.94c422.82-130.53,750.08-431.68,800.96-882.92l13.67-120.04h994.96v63.6H3858.313"/>
		<path id="path18" fill="#070607" d="M1031.413,416.074H164.93v-63.598h4631.503v63.598H1031.413"/>
	</g>
</g>
</svg>
